<?xml version="1.0" encoding="UTF-8" standalone="no"?>
<!-- Created with Inkscape (http://www.inkscape.org/) -->

<svg
   xmlns:dc="http://purl.org/dc/elements/1.1/"
   xmlns:cc="http://creativecommons.org/ns#"
   xmlns:rdf="http://www.w3.org/1999/02/22-rdf-syntax-ns#"
   xmlns:svg="http://www.w3.org/2000/svg"
   xmlns="http://www.w3.org/2000/svg"
   xmlns:sodipodi="http://sodipodi.sourceforge.net/DTD/sodipodi-0.dtd"
   xmlns:inkscape="http://www.inkscape.org/namespaces/inkscape"
   width="256"
   height="256"
   id="svg3019"
   version="1.1"
   inkscape:version="0.48.4 r9939"
   inkscape:export-filename="favicon.png"
   inkscape:export-xdpi="5.625"
   inkscape:export-ydpi="5.625"
   sodipodi:docname="New document 1">
  <defs
     id="defs3021" />
  <sodipodi:namedview
     id="base"
     pagecolor="#ffffff"
     bordercolor="#666666"
     borderopacity="1.0"
     inkscape:pageopacity="0.0"
     inkscape:pageshadow="2"
     inkscape:zoom="1.2085937"
     inkscape:cx="375"
     inkscape:cy="321.42211"
     inkscape:document-units="px"
     inkscape:current-layer="layer1"
     showgrid="false"
     inkscape:window-width="1920"
     inkscape:window-height="1056"
     inkscape:window-x="1920"
     inkscape:window-y="0"
     inkscape:window-maximized="1" />
  <metadata
     id="metadata3024">
    <rdf:RDF>
      <cc:Work
         rdf:about="">
        <dc:format>image/svg+xml</dc:format>
        <dc:type
           rdf:resource="http://purl.org/dc/dcmitype/StillImage" />
        <dc:title></dc:title>
      </cc:Work>
    </rdf:RDF>
  </metadata>
  <g
     inkscape:label="Layer 1"
     inkscape:groupmode="layer"
     id="layer1"
     transform="translate(0,-796.36218)">
    <path
       style="font-size:medium;font-style:normal;font-variant:normal;font-weight:normal;font-stretch:normal;text-indent:0;text-align:start;text-decoration:none;line-height:normal;letter-spacing:normal;word-spacing:normal;text-transform:none;direction:ltr;block-progression:tb;writing-mode:lr-tb;text-anchor:start;baseline-shift:baseline;color:#000000;fill:#000000;fill-opacity:1;stroke:none;stroke-width:2;marker:none;visibility:visible;display:inline;overflow:visible;enable-background:accumulate;font-family:Sans;-inkscape-font-specification:Sans"
       d="m 89.787069,822.67205 c -3.503792,0 -6.006061,1.21414 -7.841723,2.80269 -1.787027,1.54647 -2.942962,3.42147 -3.877292,4.89382 -10.178576,3.88883 -27.369348,3.57223 -40.399399,9.75859 -7.677797,3.64524 -15.785463,9.43789 -22.131075,15.29136 -3.172807,2.92673 -5.9073718,5.86403 -7.9288563,8.5678 -2.0214837,2.70378 -3.3387202,5.15284 -3.6449503,7.20277 l -0.043528,0.24686 0.1887801,0.17427 c 9.0378275,8.12996 12.5704895,17.50721 16.4240515,26.7635 3.853561,9.2563 8.036357,18.38299 18.413521,25.73247 20.322653,14.39327 39.809458,16.20648 53.120412,9.59884 0.189794,0.80838 0.456547,1.6329 0.784175,2.49775 l -0.01459,0.0144 -0.01447,0.0435 c -4.233551,14.50196 -4.314742,29.36773 -1.8007,41.61922 2.514052,12.25149 7.602848,21.91087 13.940845,25.96481 l 0.65347,-0.6244 c -3.9282,-7.12202 -6.833737,-18.15458 -7.406067,-29.10154 -0.563877,-10.78509 1.14617,-21.47928 6.186247,-28.30279 l 0.0291,0.0144 c 0.5539,-0.86404 1.12486,-1.65044 1.72809,-2.19278 0.58218,-0.52343 1.16964,-0.79816 1.90235,-0.78418 0.0259,0.0265 0.0586,0.0446 0.10163,0.10165 0.12305,0.16268 0.28869,0.43981 0.4792,0.79869 0.38105,0.71777 0.84988,1.78407 1.37958,3.10765 1.05936,2.64717 2.33897,6.33602 3.52876,10.48468 0.50948,1.77645 0.99123,3.64781 1.43766,5.54729 -1.45788,-0.32761 -3.51991,-0.0799 -4.66147,0.33399 -1.4599,0.5515 -2.57373,1.64078 -3.26739,2.5413 -0.59398,-0.14767 -1.57557,-0.36947 -2.71556,-0.37757 -1.27059,-0.009 -2.71643,0.28103 -3.6885,1.40861 -0.935657,1.0854 -1.198277,2.63498 -1.190777,4.10965 0.008,1.47467 0.29801,2.87569 0.638937,3.76111 0.5467,1.41984 1.68726,2.55 2.64297,3.58687 0.95569,1.03687 1.66999,1.96619 1.66999,2.77364 0,1.31059 -0.37107,2.81922 -0.40661,4.12417 -0.0177,0.65247 0.0483,1.27442 0.36304,1.80069 0.31473,0.52627 0.89417,0.88498 1.67,0.98747 1.3305,0.17584 2.59118,-0.27591 3.67399,-1.06008 1.0828,-0.78422 2.01834,-1.89774 2.8172,-3.12217 1.47189,-2.25591 2.39084,-4.77915 2.73011,-6.50572 0.80173,0.25628 1.46865,0.42128 2.03303,0.45017 -0.0184,-0.32384 -0.0484,-0.64394 -0.0726,-0.97296 -0.47926,-0.0143 -0.81738,-0.0303 -1.81521,-0.37756 0.0528,-1.06976 -0.17247,-2.38899 -0.94391,-2.75912 0.15934,1.03664 -0.023,2.58875 -0.21782,3.674 -0.26285,1.46383 -0.98454,3.66369 -2.49774,5.98293 -0.7566,1.15961 -1.63568,2.20241 -2.58486,2.88983 -0.9492,0.68747 -1.93766,1.02504 -2.99148,0.88581 -0.58064,-0.0767 -0.83299,-0.26924 -1.00199,-0.55181 -0.16901,-0.28264 -0.24783,-0.72379 -0.23234,-1.29243 0.79354,-2.74468 3.18433,0.44559 5.0245,-1.42314 1.10221,-1.56304 0.37027,-5.14862 0.5373,-7.37702 0.13435,-1.79242 -0.94272,-4.68949 -2.80269,-6.43312 -1.95752,-1.83512 -4.35004,-3.0575 -2.91886,-3.04955 1.12534,0.006 2.24309,0.0966 2.71556,0.4066 1.07572,0.70568 2.10445,1.65866 2.84625,2.74461 -0.43897,-1.35835 -1.13445,-2.74526 -2.51225,-3.84825 0.49815,-0.76187 1.50848,-1.4983 2.96242,-2.04757 0.72699,-0.27463 1.40173,-0.26752 2.2654,-0.34852 0.69552,-0.0652 1.42938,-0.0126 2.17825,0.10164 1.49021,6.60898 2.44319,13.57655 2.0766,18.9944 -3.17798,2.51818 -7.09155,7.26366 -6.92686,12.79357 0.1581,5.30786 2.07072,9.32786 5.22781,12.06756 3.1571,2.7398 7.51993,4.206 12.60486,4.5453 7.43187,0.4959 17.90605,-5.0246 23.16212,-18.07948 1.30182,-3.23345 1.39647,-8.17038 1.04556,-13.06956 -0.35091,-4.89918 -1.17085,-9.72781 -1.81522,-12.66293 -0.55139,-2.51167 -0.63553,-7.50768 -0.45017,-12.0385 0.0928,-2.26538 0.25303,-4.43285 0.45017,-6.12815 0.0986,-0.8476 0.20774,-1.56916 0.31948,-2.13469 0.11174,-0.56559 0.23836,-0.98279 0.30496,-1.10365 0.36462,-0.66168 0.80344,-1.4746 1.29243,-1.69904 0.2445,-0.11222 0.50743,-0.1362 0.94392,0.0581 0.43646,0.19434 1.01656,0.64227 1.7426,1.46669 9.6e-4,0.002 0.0134,-0.002 0.0145,0 7.95348,14.46179 5.02062,37.36861 -2.004,54.31111 l 0.72609,0.5373 c 12.10461,-9.99387 18.44898,-34.7691 12.7791,-63.271 12.18473,3.24662 28.34067,0.9333 45.24964,-9.20677 10.90557,-6.53987 15.77023,-15.32897 20.31588,-24.26576 4.54569,-8.93678 8.78415,-18.0222 18.41351,-25.44203 l 0.20331,-0.15974 -0.0291,-0.24687 c -0.14959,-2.06727 -1.26838,-4.61461 -3.07861,-7.46417 -1.81021,-2.84953 -4.31955,-5.97483 -7.26084,-9.13415 -5.88257,-6.31864 -13.53261,-12.7143 -20.91127,-16.9323 -12.5224,-7.15842 -29.68887,-8.14277 -39.5426,-12.79363 -0.81978,-1.53907 -1.82083,-3.50649 -3.48521,-5.18425 -1.70967,-1.72343 -4.11571,-3.11737 -7.60937,-3.38356 l -0.0144,0 c -0.3182,-0.0156 -0.63124,-0.0325 -0.9439,-0.0291 -4.69016,0.0517 -8.74883,2.21243 -11.86424,5.50373 -3.26231,3.44643 -5.50281,8.14283 -6.46216,13.09858 -3.27547,-2.38452 -6.8463,-4.0445 -10.2378,-4.09512 -0.39894,-0.005 -0.7816,-0.003 -1.14722,0 -5.48418,0.0487 -7.42673,1.06988 -12.06754,1.29244 -2.47074,0.11849 -4.1422,-0.0983 -5.92486,-0.334 -1.78266,-0.23567 -3.67503,-0.49532 -6.50571,-0.45017 -1.88472,0.03 -4.15336,0.62308 -6.49121,1.59737 -0.7818,-4.36617 -2.53827,-8.52119 -5.16973,-11.76256 -3.046817,-3.75304 -7.262743,-6.29367 -12.357977,-6.43313 l -0.01447,0 z m -0.653483,2.01853 c 0.255758,-0.006 0.512659,-0.01 0.769659,0 5.297742,0.19664 8.575489,2.63886 11.138145,5.67798 2.61207,3.09776 4.60893,6.70031 5.41658,10.87676 -0.79738,0.36262 -1.60571,0.76473 -2.39607,1.20531 -3.40825,1.8999 -6.626169,4.46962 -8.509718,7.27538 -0.707413,1.05377 -1.218246,2.24422 -1.582867,3.49972 -5.98624,-5.21537 -15.948721,-9.1331 -26.763508,-8.94537 -5.89385,0.10228 -12.031952,1.42395 -17.919785,4.4146 20.118891,0.81563 30.169692,5.71675 35.60723,12.24179 4.57644,5.49174 4.731489,11.17505 3.528775,16.88874 -1.706095,-0.0135 -3.970137,-0.004 -5.431123,-0.10163 -4.22e-4,2.04363 0.142497,4.21795 0.421131,6.22981 0.925679,0.39095 1.920818,1.2617 2.526776,2.39609 0.05303,0.0992 0.09861,0.20159 0.145219,0.30495 -0.04667,-0.0989 -0.09429,-0.20882 -0.145219,-0.30495 0.187916,1.6568 0.62485,3.06364 1.219823,4.35651 0.801402,3.23048 2.175614,7.5414 5.213299,10.12163 0.243326,0.20669 0.498878,0.4059 0.769648,0.59538 1.061792,2.75098 1.849845,6.2147 1.960436,11.02199 0.09138,3.9714 -1.455381,7.38308 -2.541304,11.16719 -0.652921,2.27524 -1.123369,4.70642 -0.914867,7.42059 -7.564278,3.48925 -18.01828,5.114 -29.827591,2.13469 -1.162879,-4.67646 0.656356,-10.73277 0.842263,-16.67091 -2.822973,4.93151 -4.830998,12.15403 -5.489201,15.27683 -5.351628,-1.8579 -10.934409,-4.68712 -16.598314,-8.69851 -10.177853,-7.20836 -15.338054,-15.82845 -19.18318,-25.06447 -1.129288,-2.71255 -2.159596,-5.40965 -3.296424,-8.08858 0.14198,-6.79215 6.105971,-13.30859 9.613371,-16.83067 -4.740551,1.87521 -10.171263,7.42904 -12.096586,11.48667 -2.312354,-4.49637 -5.286391,-8.89014 -9.8602377,-13.055 2.366727,-5.47001 6.3682077,-11.06764 10.9638947,-15.29137 6.290949,-5.78176 14.061353,-11.41093 21.622813,-15.00092 12.780387,-6.06781 30.677792,-6.82623 40.210609,-10.04902 2.260542,-0.76424 5.813133,0.42887 9.337457,-0.0726 -3.798497,-0.14656 -6.063198,-1.47581 -8.625887,-0.88581 2.381276,-3.58779 6.038507,-5.44191 9.874753,-5.53278 z m 78.606004,1.59738 c 0.31692,-0.005 0.64187,-0.0129 0.97296,0 4.07156,0.15864 7.88479,2.26701 10.13614,6.20077 -2.40749,-1.22196 -6.28338,-1.86203 -8.61138,-0.78417 2.92631,0.0293 6.02644,0.29531 9.30842,1.91686 8.55264,4.22568 27.05684,6.04831 39.3393,13.06955 7.26686,4.15407 14.58403,10.36983 20.41752,16.61283 4.26159,4.56065 7.82879,10.44153 9.77312,16.07553 -9.65096,7.53022 -13.1153,16.37809 -17.61482,25.2242 -1.55359,3.05433 -3.24685,6.02839 -5.24235,8.87276 -3.96574,-5.76086 -8.24161,-14.69192 -17.13561,-21.52116 8.15365,8.02523 11.6845,18.06647 14.62335,24.83212 -3.43222,4.17602 -7.68436,8.00463 -13.27284,11.35597 -16.89419,10.13114 -32.70481,10.72957 -44.07338,7.33346 0.66362,-0.96694 0.97239,-2.38286 1.03104,-3.93539 0.0786,-2.08141 -0.35176,-4.46641 -1.35051,-6.56381 -1.98197,-4.16208 -5.76863,-7.59661 -6.04104,-12.02398 -0.27635,-4.49175 0.78678,-8.34379 2.25086,-11.89326 0.004,-0.01 0.0109,-0.019 0.0144,-0.0291 3.47688,-3.9509 5.14514,-10.1296 5.47468,-12.40153 0.14725,-0.49595 0.27128,-0.99462 0.37758,-1.49575 0.59139,-0.93794 1.84205,-1.50277 2.52677,-1.7426 0.0257,-0.87413 0.19706,-4.24829 0.2033,-6.1572 -1.02512,-0.0417 -2.65568,-0.0918 -4.03702,-0.11618 -0.11702,-0.002 -0.25051,0.002 -0.36305,0 -0.13136,-0.002 -0.33713,-0.0303 -0.50826,-0.0435 0.1831,0.0145 0.35943,0.027 0.49373,0.0291 0.1164,0.002 0.25641,0.0124 0.37758,0.0144 -0.58128,-0.78747 -1.2316,-1.46242 -1.84427,-2.09113 0.34787,0.3532 0.70642,0.70709 1.06009,1.10366 -0.5167,-5.35466 -0.62961,-13.82756 3.99347,-18.58779 5.91754,-6.09309 14.67334,-9.66377 37.37887,-6.22981 -7.18278,-4.36458 -14.98184,-6.07128 -22.29083,-5.9539 -9.39726,0.15093 -17.97311,3.30921 -23.36542,7.65294 -0.28409,0.31062 -0.56719,0.61821 -0.82773,0.92939 -0.15925,-0.372 -0.33005,-0.74862 -0.52279,-1.10364 -1.86236,-3.43067 -5.07639,-7.38564 -8.82919,-10.52824 -0.35445,-0.29683 -0.71111,-0.57547 -1.07461,-0.85679 0.003,-0.005 0.0115,-0.009 0.0144,-0.0144 l 0.0435,-0.0726 0,-0.0727 c 0.8985,-4.89473 3.39807,-8.90232 6.6364,-12.19823 2.612,-2.65842 5.80353,-4.72714 10.55729,-4.80667 z m -29.39194,13.40354 c 0.35891,-0.003 0.72641,-0.005 1.11817,0 3.69238,0.055 7.8284,2.26602 11.48668,5.32947 3.65827,3.06345 6.83557,6.9689 8.62589,10.26684 1.75391,3.23089 1.97884,7.46881 2.00399,11.32693 0.0125,1.92907 -0.0295,3.75913 0.0727,5.32947 0.0505,0.77757 0.13184,1.49735 0.27591,2.13469 -3.96428,-2.93989 -14.89779,-11.8595 -16.1917,-20.18516 -1.64173,7.83586 14.73089,20.40841 16.87423,21.86968 0.71278,1.03717 1.62239,2.07065 2.45417,3.22382 0.25261,0.0297 0.48309,0.053 0.69705,0.0726 -2.53223,-0.22819 -8.65425,-1.36261 -16.40954,-1.35052 -2.65513,0.004 -5.3587,0.20446 -7.94338,0.49374 -8.00185,-5.38011 -19.47937,-5.56204 -26.85064,-0.42113 -3.45432,-0.63821 -7.22465,-1.1453 -10.80414,-1.14721 -6.42893,-0.003 -11.504085,0.94009 -13.752054,1.16172 0.223721,-0.0251 0.456893,-0.0684 0.726087,-0.10163 5.005812,-6.54949 6.922148,-7.84798 13.752047,-12.3725 4.01213,-2.65785 5.09998,-9.17856 3.79017,-11.1091 -0.21536,1.59729 0.68271,6.73186 -4.86477,10.47015 -4.996786,3.36718 -8.533307,6.01214 -10.179715,8.2193 0.838796,-2.13416 0.940098,-3.31395 0.987471,-4.51627 0.08068,-2.04741 -0.27239,-5.29571 -0.188779,-8.6985 0.08361,-3.40277 0.602015,-6.91806 2.294435,-9.43911 1.755843,-2.61551 4.877718,-5.13841 8.190238,-6.98493 3.31251,-1.84653 6.83529,-3.02441 9.32293,-3.06408 2.76777,-0.0442 4.58924,0.21408 6.37504,0.45017 1.78579,0.23609 3.54022,0.45601 6.08459,0.334 4.76252,-0.2284 6.66929,-1.24312 12.05301,-1.29243 z m -10.68797,3.25286 c -9.71469,0.0362 -19.12924,4.05892 -24.99187,11.99493 13.79473,-12.87285 29.90054,-13.52077 46.67278,-4.79216 -6.38731,-4.85122 -14.12504,-7.23087 -21.68091,-7.20277 z m -34.401923,14.28935 c -0.03446,0.372 -0.06567,0.74644 -0.08716,1.11818 0.0216,-0.37457 0.05249,-0.74348 0.08716,-1.11818 z m 34.256693,17.57128 c 4.47562,0.029 9.06428,1.21974 13.67946,3.42712 -6.74754,0.77019 -12.59504,2.12065 -14.27484,2.10564 -1.4876,-0.0133 -6.104,-1.36041 -11.64641,-2.42513 3.93834,-2.13002 8.03994,-3.13477 12.24179,-3.10763 z m -25.25324,4.03703 c 0.66782,-0.008 1.37547,0.006 2.10564,0.0291 3.0705,0.0931 5.67415,0.38353 7.85625,0.85679 -0.0926,0.0928 -0.18547,0.18087 -0.27592,0.2759 0.12528,-0.091 0.25189,-0.1729 0.37757,-0.26138 6.08791,1.34535 8.79211,4.25011 8.6985,9.13416 -0.19421,10.13406 -9.81993,14.29388 -17.20822,13.7956 -11.566336,-0.78003 -14.198693,-7.64152 -14.420049,-13.41805 -0.261276,-6.81843 2.848993,-10.29737 12.866229,-10.41207 z m 48.57511,1.002 c 10.83038,-0.11217 14.18178,3.35184 13.91179,10.39755 -0.22134,5.77653 -2.85371,12.638 -14.42005,13.41805 -7.3883,0.49827 -17.01401,-3.66156 -17.20822,-13.79563 -0.12745,-6.65059 4.92091,-9.63546 16.65638,-9.99093 0.36511,-0.0111 0.71073,-0.0255 1.0601,-0.029 z m -23.98985,5.2859 c 0.82681,-0.0166 1.65926,0.20578 2.06207,0.58088 0.29324,0.27305 0.46086,1.34552 0.7987,2.87529 -0.38724,-0.005 -0.76134,-0.008 -1.14722,0 -1.51808,0.0314 -3.03238,0.17606 -4.50173,0.42113 0.29961,-1.46989 0.4591,-2.58782 0.74061,-3.00599 0.40443,-0.60076 1.22074,-0.85473 2.04757,-0.87131 z m 41.03834,2.52678 c -0.041,0.14196 -0.0776,0.27968 -0.0872,0.43565 0.01,-0.15378 0.0444,-0.29504 0.0872,-0.43565 z m -37.98878,1.77165 c 0.86378,3.57322 2.73819,9.01075 8.50971,13.33092 3.93612,2.94632 10.45957,3.20047 15.5237,2.32347 1.29656,5.27899 3.49985,9.48589 4.85026,11.18172 2.17085,2.72612 5.03095,6.19106 6.41858,9.10511 0.92371,1.93977 1.33618,4.2161 1.26339,6.14267 -0.0625,1.65131 -0.51797,2.97338 -1.13269,3.67401 -1.33267,-1.90456 -2.92047,-2.59131 -4.4146,-2.30896 -1.6267,0.30744 -3.05441,1.5561 -4.16773,2.91886 -1.44866,1.77324 -2.42636,3.45589 -2.7446,5.25687 -0.21971,1.24333 -0.10228,2.52752 0.34852,3.89181 -0.1715,-0.11055 -0.34396,-0.26086 -0.50826,-0.33399 -0.62465,-0.27808 -1.23712,-0.27678 -1.71355,-0.0581 -0.95289,0.43738 -1.37524,1.47716 -1.71357,2.09113 -0.18201,0.3303 -0.28748,0.76213 -0.40661,1.36503 -0.11912,0.60294 -0.23354,1.35786 -0.334,2.22182 -0.20092,1.72787 -0.35669,3.90144 -0.45017,6.18625 -0.18695,4.56962 -0.12106,9.53657 0.47922,12.27084 0.63389,2.88743 1.45407,7.70737 1.80069,12.54675 0.34663,4.83943 0.1945,9.72709 -0.98747,12.66293 -5.12983,12.74131 -15.31966,17.94531 -22.23274,17.48411 -4.94366,-0.3298 -9.12327,-1.7452 -12.08206,-4.3129 -2.95879,-2.5676 -4.26264,-5.6147 -4.41461,-10.71707 -0.15314,-5.14192 3.6942,-9.83959 6.73808,-12.19821 1.53269,4.91304 2.58819,11.61434 0.15974,17.67298 4.38092,-4.32616 1.6064,-16.48335 1.45217,-18.8928 -0.2626,-4.10241 -3.31137,-17.48076 -5.70703,-25.83411 -1.19784,-4.17662 -2.46843,-7.90043 -3.5433,-10.58633 -0.53744,-1.34296 -1.02967,-2.42627 -1.43765,-3.19478 -0.204,-0.38425 -0.37674,-0.68345 -0.55182,-0.91486 -0.0875,-0.11566 -0.17432,-0.2189 -0.27592,-0.30496 -0.10164,-0.0861 -0.22301,-0.17841 -0.43564,-0.18878 -1.04403,-0.0509 -1.93597,0.38233 -2.65749,1.03104 -0.3483,0.31316 -0.6736,0.68482 -0.97296,1.07461 0.16613,-3.96924 -0.67857,-6.93259 -3.12216,-9.00347 -1.463646,-1.2404 -3.044226,-1.82703 -4.530758,-1.59737 -1.223469,0.18898 -2.323464,0.95376 -3.223815,2.19277 -1.677428,-4.62283 -1.227803,-8.26469 -0.232351,-11.73353 0.50162,-1.74796 1.12972,-3.4508 1.640953,-5.2133 0.172503,-0.59471 4.718615,-7.20767 6.375021,-14.39101 5.66204,0.69832 12.00653,-0.37871 15.66893,-3.36904 4.48886,-3.66515 6.02103,-7.94105 6.73807,-11.00745 1.99078,-0.34844 3.99735,-0.50585 6.02652,-0.4647 z m -35.09898,12.96789 c 1.369228,0.68079 2.939889,1.19003 4.617894,1.5393 -1.360877,5.10761 -3.432095,9.16628 -3.383548,8.49519 0.279713,-3.86577 -0.14918,-7.1262 -0.914863,-9.87477 -0.109705,-0.0512 -0.212682,-0.10596 -0.319483,-0.15972 z m 65.27508,0.6099 c -1.01336,2.98749 -1.63067,6.23276 -1.39409,10.07807 -0.88564,-1.05042 -2.36471,-4.12007 -3.49973,-8.24834 -9.6e-4,-0.004 9.6e-4,-0.01 0,-0.0144 2.08331,-0.46056 3.82546,-1.10209 4.89382,-1.81521 z m -31.16359,20.02544 c -6.48785,-0.0519 -12.78084,2.16414 -17.16466,6.76711 11.22828,-8.08252 23.40594,-7.34159 35.47653,0.0727 -5.14029,-4.46116 -11.82402,-6.78787 -18.31187,-6.83972 z m -37.117474,9.17771 c 0.03931,0.26731 0.07733,0.53997 0.130693,0.81322 -0.05239,-0.27581 -0.09288,-0.5432 -0.130693,-0.81322 z m 69.776804,1.5393 c 1.10508,-0.0414 2.20906,0.53733 3.32547,2.3961 l 0.24686,0.42111 0.1307,-0.0872 c 0.0497,0.0752 0.0987,0.14981 0.1452,0.23232 6.06588,27.91174 0.3318,52.39256 -10.65892,63.02423 6.59666,-16.97038 9.21479,-39.02327 1.2053,-53.39632 l -0.0144,0 c -0.93959,-1.78944 -1.24846,-3.31164 -1.07461,-4.76313 10.5029,17.78263 7.85771,38.85823 3.09312,50.57913 6.10941,-11.55062 8.89267,-33.36141 -2.45418,-52.75737 0.4447,-0.97454 1.08774,-1.97007 1.94592,-3.02053 1.03597,-1.2681 2.36901,-2.34648 3.63044,-2.58487 0.15767,-0.0298 0.32133,-0.0376 0.47921,-0.0435 z m -63.140396,0.668 c 0.76925,0.19099 1.579106,0.61461 2.396086,1.30696 2.48087,2.1025 3.23892,5.0395 2.77364,9.64241 -5.204796,7.11332 -6.885147,17.94307 -6.316938,28.81107 0.534261,10.21868 3.071448,20.42851 6.621898,27.69287 -5.278416,-4.36259 -9.716824,-13.1477 -11.980401,-24.17863 -2.420031,-11.79329 -2.382001,-26.07254 1.495733,-40.06539 l 0.04353,0.11618 0.464692,-0.84226 c 0.748121,-1.35229 1.652964,-2.12587 2.613903,-2.43965 -9.134718,20.41355 -4.18086,46.89339 0.493736,56.24258 -2.774817,-10.33382 -8.302059,-32.98957 1.39409,-56.28614 z m 32.049416,4.26938 c -5.6279,0.16592 -11.02399,2.39177 -14.66693,6.72355 9.4584,-7.72229 20.04868,-7.45272 30.7715,-1.10364 -4.61126,-3.88996 -10.47666,-5.78581 -16.10457,-5.61991 z m 1.75713,16.55475 c -5.28819,0.10801 -10.41041,1.48869 -13.76658,4.16773 8.51313,-4.0414 17.84331,-4.08425 27.08297,-1.53929 -3.84658,-1.83809 -8.65036,-2.7237 -13.31639,-2.62844 z m 6.01198,14.9138 c -6.23845,0.10358 -12.57085,1.03975 -16.43857,2.67198 11.03096,-2.19219 17.23546,-2.17465 26.99584,-1.93138 -3.11129,-0.56272 -6.81419,-0.80277 -10.55727,-0.7406 z m 10.00546,15.9303 c -9.65337,1.66274 -15.03049,1.37988 -23.46707,0.7261 7.10931,1.81513 17.98516,1.55175 23.46707,-0.7261 z m -22.56674,10.07807 c 2.85113,3.98481 11.5497,5.91141 16.59832,4.70511 -8.54415,-0.3019 -12.12324,-2.11352 -16.59832,-4.70511 z m -3.39807,5.16971 c -0.13953,4.7324 5.23277,8.9756 10.28137,7.7692 -7.45665,-1.3894 -8.66101,-4.498 -10.28137,-7.7692 z"
       id="path3784"
       inkscape:connector-curvature="0" />
  </g>
</svg>
