<?xml version="1.0" encoding="UTF-8" standalone="no"?>
<!-- Created with Inkscape (http://www.inkscape.org/) -->

<svg
   xmlns:dc="http://purl.org/dc/elements/1.1/"
   xmlns:cc="http://creativecommons.org/ns#"
   xmlns:rdf="http://www.w3.org/1999/02/22-rdf-syntax-ns#"
   xmlns:svg="http://www.w3.org/2000/svg"
   xmlns="http://www.w3.org/2000/svg"
   xmlns:sodipodi="http://sodipodi.sourceforge.net/DTD/sodipodi-0.dtd"
   xmlns:inkscape="http://www.inkscape.org/namespaces/inkscape"
   width="551.49982"
   height="515.35565"
   id="svg2"
   version="1.1"
   inkscape:version="0.48.4 r9939"
   sodipodi:docname="nerdish_by_nature.svg"
   inkscape:export-filename="/home/kore/devel/froscon.phpug.do/graphics/nerdish_by_nature.png"
   inkscape:export-xdpi="48.957405"
   inkscape:export-ydpi="48.957405">
  <defs
     id="defs4" />
  <sodipodi:namedview
     id="base"
     pagecolor="#ffffff"
     bordercolor="#666666"
     borderopacity="1.0"
     inkscape:pageopacity="0.0"
     inkscape:pageshadow="2"
     inkscape:zoom="0.90070997"
     inkscape:cx="294.10229"
     inkscape:cy="261.09222"
     inkscape:document-units="px"
     inkscape:current-layer="layer1"
     showgrid="false"
     fit-margin-top="10"
     fit-margin-left="10"
     fit-margin-right="10"
     fit-margin-bottom="10"
     inkscape:window-width="1920"
     inkscape:window-height="1056"
     inkscape:window-x="1920"
     inkscape:window-y="0"
     inkscape:window-maximized="1" />
  <metadata
     id="metadata7">
    <rdf:RDF>
      <cc:Work
         rdf:about="">
        <dc:format>image/svg+xml</dc:format>
        <dc:type
           rdf:resource="http://purl.org/dc/dcmitype/StillImage" />
        <dc:title></dc:title>
      </cc:Work>
    </rdf:RDF>
  </metadata>
  <g
     inkscape:label="Layer 1"
     inkscape:groupmode="layer"
     id="layer1"
     transform="translate(-72.00005,-189.5)">
    <path
       style="font-size:medium;font-style:normal;font-variant:normal;font-weight:normal;font-stretch:normal;text-indent:0;text-align:start;text-decoration:none;line-height:normal;letter-spacing:normal;word-spacing:normal;text-transform:none;direction:ltr;block-progression:tb;writing-mode:lr-tb;text-anchor:start;baseline-shift:baseline;color:#000000;fill:#000000;fill-opacity:1;stroke:none;stroke-width:2;marker:none;visibility:visible;display:inline;overflow:visible;enable-background:accumulate;font-family:Sans;-inkscape-font-specification:Sans"
       d="m 371.21875,234.125 c -11.80167,0.10492 -15.98194,2.3023 -25.96875,2.78125 -5.31691,0.25499 -8.91381,-0.21158 -12.75,-0.71875 -3.83619,-0.50717 -7.90849,-1.06591 -14,-0.96875 -5.93718,0.0947 -13.66561,2.75526 -21,6.84375 -7.33439,4.08849 -14.2592,9.61841 -18.3125,15.65625 -4.01202,5.97634 -5.06607,13.92062 -5.25,21.40625 -0.18393,7.48563 0.53616,14.59796 0.375,18.6875 -0.28745,7.29421 -4.27711,13.59101 -8.25,19.46875 -0.21341,0.31573 -0.4118,0.6242 -0.625,0.9375 0.0345,4.4e-4 0.091,-4.5e-4 0.125,0 0.71233,0.009 1.86093,-0.14099 3.25,-0.3125 10.77227,-14.09422 14.89613,-16.88848 29.59375,-26.625 8.63392,-5.71959 10.97491,-19.75183 8.15625,-23.90625 -0.46343,3.43727 1.46918,14.48662 -10.46875,22.53125 -10.75282,7.24601 -18.36325,12.93783 -21.90625,17.6875 1.80504,-4.5926 2.02304,-7.13143 2.125,-9.71875 0.17363,-4.40597 -0.58617,-11.39612 -0.40625,-18.71875 0.17992,-7.32263 1.2955,-14.88734 4.9375,-20.3125 3.7785,-5.62848 10.49664,-11.05761 17.625,-15.03125 7.12836,-3.97364 14.7092,-6.50837 20.0625,-6.59375 5.9561,-0.095 9.87581,0.46069 13.71875,0.96875 3.84294,0.50806 7.61838,0.98133 13.09375,0.71875 10.93196,-0.52428 14.85488,-2.98256 28.34375,-2.78125 7.9458,0.11859 16.84632,4.87637 24.71875,11.46875 7.87243,6.59238 14.70983,14.99672 18.5625,22.09375 3.77433,6.95272 4.25839,16.0725 4.3125,24.375 0.027,4.15125 -0.0635,8.08945 0.15625,11.46875 0.1088,1.67329 0.28369,3.22224 0.59375,4.59375 -8.53094,-6.32651 -32.05932,-25.52108 -34.84375,-43.4375 -3.53294,16.86242 31.70013,43.91791 36.3125,47.0625 1.5339,2.23195 3.49133,4.45595 5.28125,6.9375 1.20168,0.14109 2.24076,0.23939 2.9375,0.25 0.25047,0.004 0.55176,0.0266 0.8125,0.0312 -2.5017,-3.38924 -5.6741,-5.86881 -7.375,-8.34375 -0.97245,-1.415 -1.50752,-3.97018 -1.71875,-7.21875 -0.21123,-3.24857 -0.12899,-7.16141 -0.15625,-11.34375 -0.0545,-8.36468 -0.47645,-17.81683 -4.5625,-25.34375 -4.0077,-7.38261 -10.92416,-15.89353 -19,-22.65625 -8.07584,-6.76272 -17.32301,-11.80754 -26.03125,-11.9375 -0.85848,-0.0128 -1.68197,-0.007 -2.46875,0 z M 258.5,336.53125 c 0.40437,3.56536 1.34463,6.59282 2.625,9.375 -0.88914,-3.58417 -1.48204,-6.6102 -2.03125,-8.09375 -0.16488,-0.44536 -0.37445,-0.8675 -0.59375,-1.28125 z m 176.875,1.59375 c -0.42139,0.63824 -0.67013,1.35265 -0.71875,2.15625 -0.0209,0.34544 -0.10238,0.82605 -0.1875,1.375 0.35434,-1.17158 0.65804,-2.34644 0.90625,-3.53125 z m -12.625,30 c -1.35287,1.53696 -2.82286,2.92009 -4.4375,4.0625 -0.0878,0.0621 -0.18869,0.12578 -0.28125,0.1875 -2.18069,6.4289 -3.50912,13.41259 -3,21.6875 -1.90798,-2.26293 -5.08768,-8.88256 -7.53125,-17.78125 -0.86726,0.19199 -1.77042,0.34063 -2.6875,0.5 2.78822,11.38761 7.5265,20.46939 10.4375,24.125 4.67155,5.8665 10.82636,13.32286 13.8125,19.59375 1.98775,4.17427 2.87539,9.07281 2.71875,13.21875 -0.13426,3.55351 -1.11468,6.39856 -2.4375,7.90625 -2.86785,-4.09846 -6.28471,-5.57641 -9.5,-4.96875 -3.50057,0.66158 -6.57297,3.34867 -8.96875,6.28125 -3.11744,3.81592 -5.22142,7.43695 -5.90625,11.3125 -0.47279,2.67558 -0.22019,5.43914 0.75,8.375 -0.36906,-0.23787 -0.74019,-0.56136 -1.09375,-0.71875 -1.34423,-0.59841 -2.66222,-0.5956 -3.6875,-0.125 -2.05055,0.9412 -2.95943,3.17876 -3.6875,4.5 -0.39167,0.71078 -0.61865,1.64003 -0.875,2.9375 -0.25635,1.29747 -0.50256,2.92209 -0.71875,4.78125 -0.43238,3.71832 -0.76759,8.39569 -0.96875,13.3125 -0.40232,9.83362 -0.26051,20.52224 1.03125,26.40625 1.36411,6.21358 3.12907,16.58582 3.875,27 0.74593,10.41418 0.41857,20.93231 -2.125,27.25 -11.03914,27.41886 -32.96715,38.61761 -47.84375,37.625 -10.63851,-0.70984 -19.63284,-3.75588 -26,-9.28125 -6.36716,-5.52537 -9.17298,-12.08235 -9.5,-23.0625 -0.32956,-11.0653 7.9497,-21.17443 14.5,-26.25 3.29829,10.57264 5.56967,24.99346 0.34375,38.03125 9.42751,-9.30967 3.45689,-35.47126 3.125,-40.65625 -0.56509,-8.82818 -7.1259,-37.61781 -12.28125,-55.59375 -2.57767,-8.98797 -5.31194,-17.00136 -7.625,-22.78125 -1.15653,-2.88994 -2.21581,-5.22119 -3.09375,-6.875 -0.43897,-0.8269 -0.81076,-1.47079 -1.1875,-1.96875 -0.18837,-0.24898 -0.37511,-0.47107 -0.59375,-0.65625 -0.21864,-0.18518 -0.4799,-0.38396 -0.9375,-0.40625 -2.24669,-0.10945 -4.16609,0.82278 -5.71875,2.21875 -0.74953,0.67389 -1.44958,1.47374 -2.09375,2.3125 0.35747,-8.5416 -1.46026,-14.91861 -6.71875,-19.375 -3.1497,-2.66926 -6.55106,-3.93171 -9.75,-3.4375 -2.63284,0.40675 -4.99998,2.05241 -6.9375,4.71875 -3.60973,-9.94815 -2.64216,-17.78524 -0.5,-25.25 1.07946,-3.76158 2.43109,-7.42594 3.53125,-11.21875 0.37122,-1.27982 10.15422,-15.51055 13.71875,-30.96875 -1.49909,-0.18448 -2.96549,-0.41888 -4.40625,-0.71875 -2.92855,10.99134 -7.38574,19.72541 -7.28125,18.28125 0.60193,-8.31893 -0.32103,-15.33523 -1.96875,-21.25 -1.54521,-0.7218 -2.95495,-1.5625 -4.25,-2.46875 2.29013,5.9242 3.98043,13.38951 4.21875,23.75 0.19658,8.54627 -3.13189,15.88802 -5.46875,24.03125 -2.33686,8.14323 -3.56579,17.13037 1.15625,28.5 l 0.78125,1.90625 1,-1.8125 c 1.89506,-3.42553 4.23393,-5.14737 6.71875,-5.53125 2.48482,-0.38388 5.2756,0.58523 8.125,3 5.40733,4.58253 7.0202,10.99855 5.9375,21.125 l 1.8125,0.625 c 1.19197,-1.85939 2.42061,-3.55162 3.71875,-4.71875 1.25282,-1.12639 2.51702,-1.71756 4.09375,-1.6875 0.0557,0.0571 0.12606,0.0962 0.21875,0.21875 0.26482,0.35003 0.62127,0.94645 1.03125,1.71875 0.81997,1.5446 1.82889,3.8392 2.96875,6.6875 2.27972,5.6966 5.03335,13.63477 7.59375,22.5625 5.08315,17.72419 9.15179,39.36348 8.09375,55 -6.83887,5.41898 -15.26068,15.63099 -14.90625,27.53125 0.34019,11.42215 4.45607,20.07303 11.25,25.96875 6.79393,5.89572 16.18249,9.05112 27.125,9.78125 15.99302,1.06711 38.53295,-10.81267 49.84375,-38.90625 2.80146,-6.95822 3.00514,-17.58219 2.25,-28.125 -0.75514,-10.54281 -2.51961,-20.93381 -3.90625,-27.25 -1.18659,-5.40499 -1.36766,-16.15619 -0.96875,-25.90625 0.19945,-4.87503 0.54453,-9.53935 0.96875,-13.1875 0.21211,-1.82407 0.44704,-3.37671 0.6875,-4.59375 0.24046,-1.21704 0.51293,-2.11492 0.65625,-2.375 0.78463,-1.42388 1.72899,-3.17326 2.78125,-3.65625 0.52613,-0.24149 1.09198,-0.29313 2.03125,0.125 0.93927,0.41813 2.1876,1.38216 3.75,3.15625 l 1.65625,-1.125 c -2.24626,-4.22936 -2.88115,-7.76133 -2.28125,-11.15625 0.5999,-3.39492 2.4669,-6.7318 5.46875,-10.40625 2.22934,-2.72885 5.09797,-5.04948 7.8125,-5.5625 2.71453,-0.51302 5.44184,0.49108 8.1875,5.0625 l 0.53125,0.90625 0.875,-0.59375 c 2.61343,-1.83159 3.79952,-5.73964 3.96875,-10.21875 0.16923,-4.47911 -0.75696,-9.61149 -2.90625,-14.125 -4.26509,-8.95668 -12.4138,-16.34751 -13,-25.875 -0.59638,-9.69312 1.71075,-18.00023 4.875,-25.65625 z"
       id="path3784"
       inkscape:connector-curvature="0"
       sodipodi:nodetypes="ssssssssscscscscsssssssssscsccccccssssssscccccsccccccccssscssscssssssssssssccsssssssscsscssccsccsscccssccsccssscssssssssssssccssscccsssc" />
    <path
       style="font-size:medium;font-style:normal;font-variant:normal;font-weight:normal;font-stretch:normal;text-indent:0;text-align:start;text-decoration:none;line-height:normal;letter-spacing:normal;word-spacing:normal;text-transform:none;direction:ltr;block-progression:tb;writing-mode:lr-tb;text-anchor:start;baseline-shift:baseline;color:#000000;fill:#000000;fill-opacity:1;stroke:none;stroke-width:2;marker:none;visibility:visible;display:inline;overflow:visible;enable-background:accumulate;font-family:Sans;-inkscape-font-specification:Sans"
       d="m 273.375,443.8125 -0.0312,0.0312 -0.0312,0.0937 c -9.11039,31.20756 -9.28511,63.19793 -3.875,89.5625 5.41011,26.36457 16.36096,47.15113 30,55.875 l 1.40625,-1.34375 c -8.45332,-15.3261 -14.70587,-39.06776 -15.9375,-62.625 -1.21342,-23.20902 2.4665,-46.2223 13.3125,-60.90625 l -1.75,-0.59375 c 0.0138,-0.12871 0.0184,-0.24748 0.0312,-0.375 -11.20046,15.30751 -14.8165,38.61253 -13.59375,62 1.1497,21.99008 6.60964,43.9612 14.25,59.59375 -11.35889,-9.38822 -20.91014,-28.2933 -25.78125,-52.03125 -5.20779,-25.37867 -5.12595,-56.10687 3.21875,-86.21875 l -0.6875,-1.65625 c -0.19753,-0.47561 -0.35419,-0.93886 -0.53125,-1.40625 z"
       id="path3809"
       inkscape:connector-curvature="0"
       sodipodi:nodetypes="cccsccscccscscccc" />
    <path
       style="font-size:medium;font-style:normal;font-variant:normal;font-weight:normal;font-stretch:normal;text-indent:0;text-align:start;text-decoration:none;line-height:normal;letter-spacing:normal;word-spacing:normal;text-transform:none;direction:ltr;block-progression:tb;writing-mode:lr-tb;text-anchor:start;baseline-shift:baseline;color:#000000;fill:#000000;fill-opacity:1;stroke:none;stroke-width:1px;marker:none;visibility:visible;display:inline;overflow:visible;enable-background:accumulate;font-family:Sans;-inkscape-font-specification:Sans"
       d="m 335.66652,522.60784 c 23.73808,-4.71752 37.11719,-4.6804 58.12109,-4.15688 -17.85426,-3.22921 -44.80406,-1.46314 -58.12109,4.15688 z"
       id="path3837"
       inkscape:connector-curvature="0"
       sodipodi:nodetypes="ccc" />
    <path
       sodipodi:nodetypes="ccc"
       inkscape:connector-curvature="0"
       id="path3839"
       d="m 392.57905,551.14552 c -20.77356,3.57814 -32.3523,2.97046 -50.50745,1.56358 15.29893,3.90615 38.71066,3.33826 50.50745,-1.56358 z"
       style="font-size:medium;font-style:normal;font-variant:normal;font-weight:normal;font-stretch:normal;text-indent:0;text-align:start;text-decoration:none;line-height:normal;letter-spacing:normal;word-spacing:normal;text-transform:none;direction:ltr;block-progression:tb;writing-mode:lr-tb;text-anchor:start;baseline-shift:baseline;color:#000000;fill:#000000;fill-opacity:1;stroke:none;stroke-width:1px;marker:none;visibility:visible;display:inline;overflow:visible;enable-background:accumulate;font-family:Sans;-inkscape-font-specification:Sans" />
    <path
       style="font-size:medium;font-style:normal;font-variant:normal;font-weight:normal;font-stretch:normal;text-indent:0;text-align:start;text-decoration:none;line-height:normal;letter-spacing:normal;word-spacing:normal;text-transform:none;direction:ltr;block-progression:tb;writing-mode:lr-tb;text-anchor:start;baseline-shift:baseline;color:#000000;fill:#000000;fill-opacity:1;stroke:none;stroke-width:1px;marker:none;visibility:visible;display:inline;overflow:visible;enable-background:accumulate;font-family:Sans;-inkscape-font-specification:Sans"
       d="m 379.73968,582.96825 c -18.38658,-0.64949 -26.07939,-4.55625 -35.70955,-10.13303 6.13548,8.57503 24.8452,12.72914 35.70955,10.13303 z"
       id="path3841"
       inkscape:connector-curvature="0"
       sodipodi:nodetypes="ccc" />
    <path
       sodipodi:nodetypes="ccc"
       inkscape:connector-curvature="0"
       id="path3843"
       d="m 358.82358,600.66649 c -16.04632,-2.98975 -18.6198,-9.67558 -22.10677,-16.71502 -0.30024,10.18396 11.24242,19.31113 22.10677,16.71502 z"
       style="font-size:medium;font-style:normal;font-variant:normal;font-weight:normal;font-stretch:normal;text-indent:0;text-align:start;text-decoration:none;line-height:normal;letter-spacing:normal;word-spacing:normal;text-transform:none;direction:ltr;block-progression:tb;writing-mode:lr-tb;text-anchor:start;baseline-shift:baseline;color:#000000;fill:#000000;fill-opacity:1;stroke:none;stroke-width:1px;marker:none;visibility:visible;display:inline;overflow:visible;enable-background:accumulate;font-family:Sans;-inkscape-font-specification:Sans" />
    <path
       style="fill:#000000;fill-opacity:1;stroke:none"
       d="m 296.83095,315.60408 c -15.81114,-0.008 -27.8037,2.64504 -31.27561,2.59915 -3.65938,-0.0483 -9.79054,-0.0158 -13.39566,-0.25705 -9.1e-4,4.39777 0.28582,9.09482 0.88543,13.42423 2.33754,0.98723 4.91131,3.36521 6.05519,6.45504 1.61447,4.36104 3.31708,21.43224 13.22429,29.84749 12.04546,10.23151 40.4084,10.69493 53.29704,0.17138 15.76095,-12.86882 14.60386,-29.28789 16.48038,-32.07534 1.74063,-2.58558 7.12058,-2.2427 8.85428,-0.62837 2.07967,1.93649 1.15845,22.23307 20.45053,36.67385 13.0196,9.74561 39.1863,5.82838 46.89911,0.37131 11.36026,-8.03774 16.08828,-27.78333 16.33757,-31.90396 0.19814,-3.27513 4.21852,-5.15339 6.14087,-5.82669 0.0554,-1.88111 0.41499,-9.14495 0.42843,-13.25286 -2.39291,-0.0973 -6.38176,-0.20981 -9.48264,-0.25705 -4.26129,-0.0649 -18.43855,-3.0562 -36.75954,-3.0276 -20.83395,0.0325 -43.26394,5.70028 -48.29866,5.65532 -5.30635,-0.0475 -29.0748,-7.9578 -49.84101,-7.96885 z m -3.19897,4.76988 c 1.4371,-0.0164 2.94152,0.009 4.51282,0.0571 25.25419,0.76495 36.11983,7.22413 35.84555,21.5359 -0.41795,21.80802 -21.14592,30.74836 -37.04515,29.67611 -24.89019,-1.67861 -30.5422,-16.44556 -31.01855,-28.87637 -0.56226,-14.67292 6.14873,-22.14597 27.70533,-22.39276 z m 104.50904,2.14217 c 23.30644,-0.24137 30.51418,7.20217 29.93317,22.36419 -0.47634,12.43082 -6.12835,27.19776 -31.01853,28.87637 -15.89923,1.07225 -36.62721,-7.8681 -37.04516,-29.67611 -0.27427,-14.31177 10.59137,-20.74239 35.84555,-21.50733 0.78565,-0.0238 1.53315,-0.0494 2.28497,-0.0571 z"
       id="path3801"
       inkscape:connector-curvature="0" />
    <path
       style="font-size:medium;font-style:normal;font-variant:normal;font-weight:normal;font-stretch:normal;text-indent:0;text-align:start;text-decoration:none;line-height:normal;letter-spacing:normal;word-spacing:normal;text-transform:none;direction:ltr;block-progression:tb;writing-mode:lr-tb;text-anchor:start;baseline-shift:baseline;color:#000000;fill:#000000;fill-opacity:1;stroke:none;stroke-width:2;marker:none;visibility:visible;display:inline;overflow:visible;enable-background:accumulate;font-family:Sans;-inkscape-font-specification:Sans"
       d="m 266.78125,199.5 c -7.53999,0 -12.92475,2.61277 -16.875,6.03125 -3.84559,3.32791 -6.3331,7.36281 -8.34375,10.53125 -21.90379,8.36855 -58.89748,7.68726 -86.9375,21 -16.52226,7.84437 -33.96956,20.30987 -47.625,32.90625 -6.82772,6.29819 -12.71237,12.6191 -17.0625,18.4375 -4.35013,5.8184 -7.18476,11.08866 -7.84375,15.5 l -0.0937,0.53125 0.40625,0.375 c 19.44896,17.49527 27.05107,37.67465 35.34375,57.59375 8.29268,19.9191 17.29385,39.55923 39.625,55.375 43.73333,30.9736 85.66799,34.87553 114.3125,20.65625 -0.46665,-1.98297 -0.73159,-3.90517 -0.875,-5.75 -16.27995,7.51692 -38.80689,10.98285 -64.23325,4.56808 -2.50246,-10.06351 1.41896,-23.09271 1.81903,-35.87125 -6.0749,10.61238 -10.40609,26.15392 -11.82251,32.87396 -11.51643,-3.99809 -23.51232,-10.06347 -35.70077,-18.69579 -21.90223,-15.51199 -33.00674,-34.06206 -41.28125,-53.9375 -2.43017,-5.83729 -4.66417,-11.65971 -7.11057,-17.42465 0.30553,-14.61635 13.16344,-28.64046 20.7112,-36.21978 -10.20143,4.03534 -21.90148,15.97638 -26.04468,24.70823 -4.97607,-9.67598 -11.369504,-19.10121 -21.2122,-28.0638 5.09308,-11.77116 13.70406,-23.81701 23.59375,-32.90625 13.53781,-12.44208 30.25936,-24.55575 46.53125,-32.28125 27.50275,-13.05765 66.01709,-14.68971 86.53125,-21.625 4.86458,-1.64459 12.51618,0.91759 20.10035,-0.16157 -8.17418,-0.31537 -13.05832,-3.20078 -18.5731,-1.93116 5.46603,-8.23546 14.06158,-12.20447 22.91025,-11.87602 11.40049,0.42317 18.45405,5.67869 23.96875,12.21875 5.62107,6.66621 9.91822,14.41872 11.65625,23.40625 0.62506,-0.28396 1.2529,-0.55339 1.875,-0.8125 -1.68237,-9.3958 -5.46224,-18.33723 -11.125,-25.3125 -6.5566,-8.07634 -15.62912,-13.54362 -26.5938,-13.84375 z"
       id="path2996"
       inkscape:connector-curvature="0"
       sodipodi:nodetypes="sscssscccsscccccssccccsssccssccscs" />
    <path
       style="font-size:medium;font-style:normal;font-variant:normal;font-weight:normal;font-stretch:normal;text-indent:0;text-align:start;text-decoration:none;line-height:normal;letter-spacing:normal;word-spacing:normal;text-transform:none;direction:ltr;block-progression:tb;writing-mode:lr-tb;text-anchor:start;baseline-shift:baseline;color:#000000;fill:#000000;fill-opacity:1;stroke:none;stroke-width:2;marker:none;visibility:visible;display:inline;overflow:visible;enable-background:accumulate;font-family:Sans;-inkscape-font-specification:Sans"
       d="m 435.15625,202.90625 c -10.09297,0.11107 -18.82702,4.76105 -25.53125,11.84375 -7.02033,7.41654 -11.84177,17.52298 -13.90625,28.1875 0.57037,0.41536 1.1259,0.84634 1.6875,1.28125 0.006,-0.0123 0.0249,-0.019 0.0312,-0.0312 l 0.0937,-0.15625 0,-0.15625 c 1.93354,-10.53324 7.31251,-19.15739 14.28125,-26.25 5.99562,-6.10219 13.4128,-10.78792 24.8125,-10.34375 8.76181,0.34139 16.96311,4.8655 21.80791,13.33075 -5.18081,-2.62959 -13.51667,-4.00565 -18.52639,-1.68613 6.29726,0.063 12.9683,0.64711 20.03098,4.13663 18.40484,9.09345 58.22497,13.01564 84.65625,28.125 15.6379,8.93939 31.3841,22.31538 43.9375,35.75 9.1707,9.81432 16.84715,22.46967 21.03125,34.59375 -20.7684,16.20469 -28.22347,35.24487 -37.90625,54.28125 -3.34321,6.57276 -7.00451,12.96652 -11.29873,19.08747 -8.53408,-12.39709 -17.71533,-31.63177 -36.85479,-46.32799 17.54628,17.26992 25.13874,38.87328 31.46302,53.4326 -7.386,8.98657 -16.53337,17.2523 -28.5595,24.46417 -36.71276,22.01604 -71.06314,23.11204 -95.57741,15.5625 -0.19441,0.29975 -0.40174,0.58043 -0.625,0.84375 0.24165,0.3777 0.48969,0.74458 0.71875,1.15625 l 0.0625,0.125 0.0312,0.125 c 0.31702,1.45322 0.61812,2.8991 0.90625,4.34375 26.26785,7.14835 61.21883,2.24739 97.79616,-19.6875 23.46825,-14.07351 33.93675,-32.98723 43.71875,-52.21875 9.7821,-19.23152 18.9031,-38.78288 39.625,-54.75 l 0.4375,-0.34375 -0.0625,-0.53125 c -0.3219,-4.44866 -2.7295,-9.93042 -6.625,-16.0625 -3.8955,-6.13207 -9.2955,-12.85754 -15.625,-19.65625 -12.659,-13.59741 -29.1215,-27.36057 -45,-36.4375 -26.9476,-15.40453 -63.88904,-17.5228 -85.09375,-27.53125 -1.76412,-3.31203 -3.91835,-7.5458 -7.5,-11.15625 -3.67912,-3.70872 -8.8568,-6.70842 -16.375,-7.28125 l -0.0312,0 c -0.68474,-0.0334 -1.35839,-0.0699 -2.03125,-0.0625 z"
       id="path3780"
       inkscape:connector-curvature="0"
       sodipodi:nodetypes="cscccccssccssscscccsccccccsscccssscsccsc" />
    <path
       style="fill:#000000;fill-opacity:1;stroke:none"
       d="m 471.90625,252.625 c -20.22246,0.32477 -38.67728,7.12123 -50.28125,16.46875 -0.61135,0.66843 -1.22058,1.33036 -1.78125,2 3.02703,7.08275 3.38857,15.45889 3.4375,22.96875 0.0273,4.18234 -0.055,8.09518 0.15625,11.34375 0.21123,3.24857 0.7463,5.80375 1.71875,7.21875 1.32641,1.93003 3.57984,3.8554 5.6875,6.21875 -1.1119,-11.52297 -1.37138,-29.77702 8.57727,-40.02079 12.73427,-13.11203 31.59278,-20.7752 80.45398,-13.38546 -15.45698,-9.39236 -32.24017,-13.0651 -47.96875,-12.8125 z"
       id="path3782"
       inkscape:connector-curvature="0"
       sodipodi:nodetypes="sccssscscs" />
    <path
       style="font-size:medium;font-style:normal;font-variant:normal;font-weight:normal;font-stretch:normal;text-indent:0;text-align:start;text-decoration:none;line-height:normal;letter-spacing:normal;word-spacing:normal;text-transform:none;direction:ltr;block-progression:tb;writing-mode:lr-tb;text-anchor:start;baseline-shift:baseline;color:#000000;fill:#000000;fill-opacity:1;stroke:none;stroke-width:1px;marker:none;visibility:visible;display:inline;overflow:visible;enable-background:accumulate;font-family:Sans;-inkscape-font-specification:Sans"
       d="M 294.5,268.9375 C 324.18556,241.23576 358.84447,239.84149 394.9375,258.625 363.52,234.76308 316.92856,238.57675 294.5,268.9375 z"
       id="path3821"
       inkscape:connector-curvature="0"
       sodipodi:nodetypes="ccc" />
    <path
       sodipodi:nodetypes="ccc"
       inkscape:connector-curvature="0"
       id="path3827"
       d="m 314.44925,322.86015 c 19.98124,-14.50966 42.29453,-14.30142 64.86713,-2.87195 -19.40205,-14.11114 -49.4611,-13.31645 -64.86713,2.87195 z"
       style="font-size:medium;font-style:normal;font-variant:normal;font-weight:normal;font-stretch:normal;text-indent:0;text-align:start;text-decoration:none;line-height:normal;letter-spacing:normal;word-spacing:normal;text-transform:none;direction:ltr;block-progression:tb;writing-mode:lr-tb;text-anchor:start;baseline-shift:baseline;color:#000000;fill:#000000;fill-opacity:1;stroke:none;stroke-width:1px;marker:none;visibility:visible;display:inline;overflow:visible;enable-background:accumulate;font-family:Sans;-inkscape-font-specification:Sans" />
    <path
       style="font-size:medium;font-style:normal;font-variant:normal;font-weight:normal;font-stretch:normal;text-indent:0;text-align:start;text-decoration:none;line-height:normal;letter-spacing:normal;word-spacing:normal;text-transform:none;direction:ltr;block-progression:tb;writing-mode:lr-tb;text-anchor:start;baseline-shift:baseline;color:#000000;fill:#000000;fill-opacity:1;stroke:none;stroke-width:1px;marker:none;visibility:visible;display:inline;overflow:visible;enable-background:accumulate;font-family:Sans;-inkscape-font-specification:Sans"
       d="m 350.21875,341.34375 c -3.26684,0.0674 -6.52554,0.37885 -9.6875,0.90625 -0.12885,0.63224 -0.24367,1.21128 -0.40625,1.90625 4.28409,-0.74983 8.6021,-1.08855 12.96875,-1 -0.15254,-0.62991 -0.27966,-1.24001 -0.40625,-1.8125 -0.8333,-0.0125 -1.63836,-0.0171 -2.46875,0 z"
       id="path3829"
       inkscape:connector-curvature="0"
       sodipodi:nodetypes="sccccs" />
    <path
       sodipodi:nodetypes="ccc"
       inkscape:connector-curvature="0"
       id="path3831"
       d="m 314.02538,430.01589 c 24.16268,-17.39313 50.36618,-15.81382 76.34151,0.14119 -22.12328,-19.20032 -57.47402,-19.9519 -76.34151,-0.14119 z"
       style="font-size:medium;font-style:normal;font-variant:normal;font-weight:normal;font-stretch:normal;text-indent:0;text-align:start;text-decoration:none;line-height:normal;letter-spacing:normal;word-spacing:normal;text-transform:none;direction:ltr;block-progression:tb;writing-mode:lr-tb;text-anchor:start;baseline-shift:baseline;color:#000000;fill:#000000;fill-opacity:1;stroke:none;stroke-width:1px;marker:none;visibility:visible;display:inline;overflow:visible;enable-background:accumulate;font-family:Sans;-inkscape-font-specification:Sans" />
    <path
       style="font-size:medium;font-style:normal;font-variant:normal;font-weight:normal;font-stretch:normal;text-indent:0;text-align:start;text-decoration:none;line-height:normal;letter-spacing:normal;word-spacing:normal;text-transform:none;direction:ltr;block-progression:tb;writing-mode:lr-tb;text-anchor:start;baseline-shift:baseline;color:#000000;fill:#000000;fill-opacity:1;stroke:none;stroke-width:1px;marker:none;visibility:visible;display:inline;overflow:visible;enable-background:accumulate;font-family:Sans;-inkscape-font-specification:Sans"
       d="m 322.78099,463.60237 c 20.35401,-16.61796 43.13153,-16.04171 66.20653,-2.37885 -19.84643,-16.74198 -50.5277,-16.26474 -66.20653,2.37885 z"
       id="path3833"
       inkscape:connector-curvature="0"
       sodipodi:nodetypes="ccc" />
    <path
       sodipodi:nodetypes="ccc"
       inkscape:connector-curvature="0"
       id="path3835"
       d="m 328.50054,493.72221 c 18.31984,-8.69694 38.37613,-8.76249 58.25945,-3.28592 -17.65907,-8.43828 -44.66451,-7.56619 -58.25945,3.28592 z"
       style="font-size:medium;font-style:normal;font-variant:normal;font-weight:normal;font-stretch:normal;text-indent:0;text-align:start;text-decoration:none;line-height:normal;letter-spacing:normal;word-spacing:normal;text-transform:none;direction:ltr;block-progression:tb;writing-mode:lr-tb;text-anchor:start;baseline-shift:baseline;color:#000000;fill:#000000;fill-opacity:1;stroke:none;stroke-width:1px;marker:none;visibility:visible;display:inline;overflow:visible;enable-background:accumulate;font-family:Sans;-inkscape-font-specification:Sans" />
    <path
       style="fill:#000000;fill-opacity:1;stroke:none"
       d="m 218.1875,246 c -12.68329,0.22017 -25.89217,3.06428 -38.5625,9.5 43.29486,1.7552 64.92368,12.30217 76.625,26.34375 10.83522,13.00227 10.13389,26.4902 6.71875,40.03125 0.98107,-1.50876 2.0423,-3.03816 3.09375,-4.59375 3.97289,-5.87774 7.96255,-12.17454 8.25,-19.46875 0.16116,-4.08954 -0.55893,-11.20187 -0.375,-18.6875 0.11414,-4.64542 0.56042,-9.45626 1.84375,-13.875 C 262.89915,254.02679 241.46037,245.59601 218.1875,246 z"
       id="path3768"
       inkscape:connector-curvature="0"
       sodipodi:nodetypes="scscssscs" />
    <path
       style="font-size:medium;font-style:normal;font-variant:normal;font-weight:normal;font-stretch:normal;text-indent:0;text-align:start;text-decoration:none;line-height:normal;letter-spacing:normal;word-spacing:normal;text-transform:none;direction:ltr;block-progression:tb;writing-mode:lr-tb;text-anchor:start;baseline-shift:baseline;color:#000000;fill:#000000;fill-opacity:1;stroke:none;stroke-width:2;marker:none;visibility:visible;display:inline;overflow:visible;enable-background:accumulate;font-family:Sans;-inkscape-font-specification:Sans"
       d="m 430.61755,442.875 c -0.3668,0.42959 -0.76977,0.81034 -1.21875,1.125 l -0.3125,0.21875 c 0.14172,0.23014 0.29919,0.44211 0.4375,0.6875 13.05343,60.06466 0.714,112.74616 -22.9375,135.625 14.19569,-36.51941 19.8441,-83.99879 2.60808,-114.92891 l -0.38933,0.14766 -1.34375,0.90625 c 17.26624,31.10841 10.96469,80.54849 -4.1875,117.09375 l 1.5625,1.15625 c 26.67888,-22.02696 40.38125,-77.4229 26.59375,-140.625 l -0.0312,-0.125 -0.0625,-0.125 c -0.22906,-0.41167 -0.4771,-0.77855 -0.71875,-1.15625 z"
       id="path3811"
       inkscape:connector-curvature="0"
       sodipodi:nodetypes="ccccccccccccccc" />
    <path
       style="font-size:medium;font-style:normal;font-variant:normal;font-weight:normal;font-stretch:normal;text-indent:0;text-align:start;text-decoration:none;line-height:normal;letter-spacing:normal;word-spacing:normal;text-transform:none;direction:ltr;block-progression:tb;writing-mode:lr-tb;text-anchor:start;baseline-shift:baseline;color:#000000;fill:#000000;fill-opacity:1;stroke:none;stroke-width:2;marker:none;visibility:visible;display:inline;overflow:visible;enable-background:accumulate;font-family:Sans;-inkscape-font-specification:Sans"
       d="m 310.96875,501.94618 c -3.14162,1.18683 -5.53853,3.55342 -7.03125,5.49132 -1.27823,-0.31776 -3.39057,-0.7951 -5.84375,-0.8125 -2.73426,-0.0194 -5.84564,0.6047 -7.9375,3.03125 -2.01347,2.33562 -2.57861,5.67034 -2.5625,8.84375 0.0161,3.17341 0.64132,6.18828 1.375,8.09375 1.17646,3.05541 3.63088,5.48746 5.6875,7.71875 2.05662,2.23129 3.59375,4.2311 3.59375,5.96875 0,2.82029 -0.79851,6.06679 -0.875,8.875 -0.0382,1.4041 0.10397,2.74249 0.78125,3.875 0.67728,1.13251 1.92418,1.90439 3.59375,2.125 2.86318,0.37834 5.5761,-0.59369 7.90625,-2.28125 2.33015,-1.68756 4.34337,-4.08387 6.0625,-6.71875 3.16742,-4.85464 5.14493,-10.28453 5.875,-14 1.72531,0.55147 3.16048,0.90661 4.375,0.96875 -0.0395,-0.69688 -0.10413,-1.38582 -0.15625,-2.09375 -1.03133,-0.031 -1.75701,-0.0963 -3.9043,-0.8431 0.11368,-2.30216 -0.37377,-5.13663 -2.03385,-5.93312 0.34288,2.23078 -0.0607,5.58041 -0.48003,7.91575 -0.56564,3.15017 -2.10673,7.90079 -5.36307,12.89172 -1.62817,2.49546 -3.51989,4.73943 -5.5625,6.21875 -2.04261,1.47932 -4.16974,2.20591 -6.4375,1.90625 -1.24952,-0.16511 -1.79255,-0.57934 -2.15625,-1.1875 -0.3637,-0.60816 -0.53333,-1.55757 -0.5,-2.78125 1.70769,-5.90646 6.83162,0.93539 10.79158,-3.08602 2.37191,-3.36366 0.79503,-11.07436 1.15447,-15.86974 0.28912,-3.85718 -2.02822,-10.08827 -6.03077,-13.8405 -4.21249,-3.94904 -9.35688,-6.57141 -6.27705,-6.55423 2.42166,0.0135 4.84765,0.20805 5.86437,0.875 2.3149,1.51856 4.50303,3.55493 6.09936,5.8919 -0.94464,-2.92314 -2.43755,-5.89912 -5.40253,-8.27274 1.072,-1.63953 3.24553,-3.21297 6.37435,-4.39497 1.56441,-0.591 3.03641,-0.57444 4.89497,-0.7487 1.49674,-0.14034 3.07598,-0.0272 4.6875,0.21875 -0.16502,-0.73259 -0.36036,-1.45958 -0.53125,-2.1875 -3.13727,-0.70501 -7.57466,-0.19435 -10.03125,0.69618 z"
       id="path26"
       inkscape:connector-curvature="0"
       sodipodi:nodetypes="ccsssssscsssscccccsssssccssssccssccc" />
    <path
       style="fill:#000000;fill-opacity:1;stroke:none"
       d="m 281.73239,439.04609 c -20.2715,44.05947 -9.5152,101.77117 0.62055,122.04266 -5.99871,-22.34001 -17.95473,-71.46049 3.30963,-121.83582 z"
       id="path3779"
       inkscape:connector-curvature="0"
       sodipodi:nodetypes="cccc" />
    <path
       style="fill:#000000;fill-opacity:1;stroke:none"
       d="m 406.25727,454.35313 c 23.29898,38.47447 17.58242,84.39561 7.23982,109.8384 13.23852,-25.02909 19.22254,-72.43368 -5.79185,-114.38914 z"
       id="path3781"
       inkscape:connector-curvature="0"
       sodipodi:nodetypes="cccc" />
    <g
       style="font-size:74.02050781px;font-style:normal;font-variant:normal;font-weight:normal;font-stretch:normal;text-indent:0;text-align:center;text-decoration:none;line-height:125%;letter-spacing:0px;word-spacing:0px;text-transform:none;direction:ltr;block-progression:tb;writing-mode:lr-tb;text-anchor:middle;color:#000000;fill:#000000;fill-opacity:1;fill-rule:nonzero;stroke:none;stroke-width:1px;marker:none;visibility:visible;display:inline;overflow:visible;enable-background:accumulate;font-family:Dead Island;-inkscape-font-specification:Dead Island"
       id="text3789">
      <path
         d="m 118.05817,642.01483 c 2.69865,3e-5 4.04798,0.57832 4.04799,1.73485 1.15656,1.59032 1.73484,2.93965 1.73486,4.048 l -0.57829,0.28914 c 0.38551,0.62651 0.57827,1.20479 0.57829,1.73486 -0.38554,1.22888 -0.5783,1.99993 -0.57829,2.31314 4.98769,-5.78282 10.18021,-8.67424 15.57756,-8.67428 3.8552,0.45784 5.78282,2.28908 5.78285,5.49371 1.3493,1.80717 2.02396,4.60221 2.024,8.38513 -4e-5,1.6626 -0.57832,3.67454 -1.73485,6.03586 l 0.57828,0.28914 -0.57828,2.60228 -0.57829,0 0,-1.15657 -0.57829,0 c -3e-5,1.5903 -0.48193,2.65049 -1.44571,3.18057 -1.68669,6.93943 -3.03603,10.40914 -4.04799,10.40913 -3e-5,0.38553 -0.1928,0.57829 -0.57829,0.57829 l -0.28914,0 c -0.38555,0 -0.57832,-0.19276 -0.57829,-0.57829 l -0.57828,0.28915 c -0.57831,-0.0723 -1.25298,-0.55419 -2.024,-1.44572 -0.77107,10e-6 -1.1566,-0.19275 -1.15657,-0.57828 l 0,-0.57829 c -3e-5,-0.53009 1.44569,-4.4817 4.33714,-11.85484 1.3493,-5.01179 2.02397,-8.95135 2.024,-11.81871 l -0.57829,-0.28914 c -1.51803,0.69879 -2.86736,1.46983 -4.048,2.31314 -2e-5,-0.3855 -0.19278,-0.57826 -0.57828,-0.57828 -1.99993,1.39754 -3.25288,3.03602 -3.75886,4.91542 -1.30116,1.06021 -3.60225,3.74682 -6.90327,8.05985 -1.68668,10e-6 -2.93963,0.96382 -3.75886,2.89143 l 0.28914,1.15657 c -1.68667,5.97561 -2.84324,8.96342 -3.46971,8.96342 l -0.28914,0 c -1.99991,-1.73486 -3.34924,-2.60228 -4.048,-2.60229 l -3.18057,-3.46971 0,-0.57828 c 1.80714,-3.59018 3.92752,-11.48136 6.36114,-23.67355 0.57828,-5.20453 1.44571,-7.80682 2.60229,-7.80685"
         style="marker:none"
         id="path3006" />
      <path
         d="m 169.74241,643.31597 c 3.71063,0.1687 5.86715,0.83132 6.46956,1.98785 l -0.253,0.506 c -1.99993,-0.16863 -2.99988,-0.3373 -2.99985,-0.506 -5.59011,0.84337 -9.90315,2.16861 -12.93913,3.97571 -3.63839,2.6746 -5.45758,4.66246 -5.45757,5.96357 1.42161,0.50602 2.83118,0.75902 4.22871,0.759 5.42141,2e-5 10.97535,-2.48178 16.66184,-7.44542 0.67464,-0.67464 1.09631,-1.50592 1.265,-2.49386 l 0.253,0 c 0.45778,4e-5 1.03607,1.40961 1.73486,4.22871 0.16863,3e-5 0.25297,0.0844 0.253,0.253 -1.1566,3.39746 -2.49389,5.46964 -4.01186,6.21657 -2.09631,1.97583 -3.57816,2.96373 -4.44556,2.96371 l 0,0.253 c 0.0482,0.33735 0.20478,0.50602 0.46985,0.506 1.08426,-0.65055 1.99988,-0.97584 2.74686,-0.97586 l 0,0.21686 c -3e-5,0.31326 -1.4096,0.97588 -4.22871,1.98786 l -0.759,0 0,-0.72286 0.506,0 0,-0.253 -1.22886,0.253 c -0.38554,2e-5 -0.72287,-0.0843 -1.012,-0.253 -0.89154,0.65059 -3.45768,0.97587 -7.69842,0.97586 -0.43372,-0.53008 -1.75896,-1.34932 -3.97571,-2.45772 -0.84334,-1.20473 -1.26501,-2.12035 -1.265,-2.74685 l -0.759,0 c -1.012,1.80716 -1.59029,4.28897 -1.73485,7.44542 -1e-5,3.99982 2.66251,5.99972 7.98756,5.99971 1.63846,1e-5 4.78288,-0.74694 9.43328,-2.24085 l 0.506,0 0,0.506 -1.48186,0.46985 0,0.506 1.73486,-0.253 0.253,0.506 c -0.16869,10e-6 -0.25303,0.0843 -0.253,0.253 0.50597,10e-6 0.75897,0.0843 0.759,0.253 l -0.253,0.46986 c 0.16864,0.33734 0.25297,0.59034 0.253,0.759 -0.40964,0.98791 -0.99998,1.48186 -1.771,1.48185 l 0,0.253 0.253,0 c 1.15655,-0.48189 1.98783,-0.72285 2.49385,-0.72285 l 0,0.46985 c -2.04811,1.01201 -3.12035,1.51801 -3.21671,1.518 l 0,0.253 0.46986,0.72286 c -0.31326,0.0482 -0.46988,0.21686 -0.46986,0.506 l 1.48186,0 0,0.253 -1.265,0.97585 0.253,0 c 0.33731,-0.14456 0.59031,-0.21685 0.759,-0.21685 0.31321,0.14457 0.56621,0.21686 0.759,0.21685 -2.36135,2.16857 -5.60216,3.25286 -9.72242,3.25286 -1.87944,0 -3.03601,-0.40962 -3.46972,-1.22886 l 0,-0.506 0.506,0 0,-0.253 c -2.21676,0 -4.301,-1.57823 -6.2527,-4.73471 -1e-5,-0.40961 -0.57829,-1.81918 -1.73486,-4.22871 -1.15657,-3.30103 -1.73486,-5.62622 -1.73486,-6.97556 l 0,-2.96372 c 0,-3.56606 2.24086,-7.55382 6.72257,-11.96327 l 1.73486,-1.22886 c 0.33732,0.0482 0.50599,0.21689 0.506,0.506 -4.31305,3.42155 -6.46957,6.07202 -6.46957,7.95142 -0.506,0.6506 -0.759,1.31322 -0.759,1.98786 l 0,1.22886 0.253,0 c 0,-0.36141 0.91562,-2.01193 2.74685,-4.95157 0,-0.55416 0.74695,-1.38545 2.24086,-2.49386 4.55398,-4.65034 9.52964,-6.97553 14.92699,-6.97556"
         style="marker:none"
         id="path3008" />
      <path
         d="m 184.92239,641.36426 0.54215,0 c 2.62636,1.08432 3.93955,2.21679 3.93956,3.39742 l 1.69872,1.12043 0,0.253 -0.28915,0.57828 c 0.60237,4e-5 1.07223,0.93975 1.40957,2.81914 l 0.57829,0 c 6.02378,-4.12024 11.63796,-6.18038 16.84256,-6.18042 0.98787,0.1928 1.92758,0.28918 2.81914,0.28914 l 1.12042,0 0,0.253 -0.28914,0.57829 c 1.25292,3e-5 1.99987,0.37351 2.24086,1.12043 -1.06023,0.26508 -1.80718,0.54217 -2.24086,0.83128 -0.36146,-0.19273 -0.63856,-0.28911 -0.83128,-0.28914 l -0.28915,0.57828 3.36129,0 1.40957,0.28915 0,0.54214 -2.81914,0 -1.40957,0.28914 0.57828,0.83129 0,0.28914 c -3e-5,0.38555 -2.71074,1.32527 -8.13213,2.81914 -1.20479,0.93974 -2.04812,1.4096 -2.53,1.40957 l 0,0.28914 0.83128,0 c -2e-5,-0.60235 2.52997,-1.44568 7.59,-2.53 l 0.28914,0.54215 c -5.01183,1.44574 -10.36097,4.72268 -16.04742,9.83085 -0.48192,10e-6 -2.62639,1.87944 -6.43342,5.63828 -0.74696,10e-6 -1.87943,3.18057 -3.39742,9.5417 -0.12049,1.99991 -0.39758,3.21671 -0.83129,3.65043 -1.56619,-0.0964 -3.43357,-1.68667 -5.60214,-4.77086 0,-0.16866 -0.56624,-0.63851 -1.69871,-1.40957 l 0,-1.12042 c 2.81914,-8.57788 5.15637,-18.60148 7.01171,-30.07083 -1e-5,-0.93968 0.19275,-1.40954 0.57828,-1.40957"
         style="marker:none"
         id="path3010" />
      <path
         d="m 239.38963,618.23285 0.253,0 0,0.97585 0.46986,-0.253 0.506,0 c -4e-5,1.10844 0.32524,2.16863 0.97585,3.18057 -4e-5,0.50606 -0.49399,3.10834 -1.48185,7.80685 l 0.506,0.72286 -0.72286,0 0,0.46986 0.72286,0 0,0.253 c -0.33737,0.43376 -1.15661,4.16851 -2.45772,11.20427 -3e-5,0.6747 -0.24098,1.32527 -0.72285,1.95171 l 0.253,0.506 0,0.253 c -0.81927,1.63851 -1.9638,6.34912 -3.43357,14.13185 l -2.16857,11.20427 0,3.65043 0.72286,3.18057 c -0.38556,1.13248 -0.71084,1.69871 -0.97586,1.69871 -2.77098,-3.46971 -4.15645,-6.39727 -4.15642,-8.78271 l 0,-4.87928 c -3.56612,3.83115 -5.34916,6.02382 -5.34914,6.578 l 0.506,0.253 c 0.0482,-0.31323 0.20479,-0.46985 0.46985,-0.46986 l 0.253,0 0,0.46986 c -4.24077,4.89133 -7.57796,7.33699 -10.01156,7.33699 -0.53011,0.31324 -1.01201,0.46986 -1.44571,0.46986 l -2.20472,0 c -2.65047,0 -4.51785,-2.03605 -5.60213,-6.10814 -1.30115,-2.72275 -1.95172,-4.50579 -1.95172,-5.34914 l 0,-1.44571 c 0,-3.75884 2.03605,-7.90321 6.10814,-12.43313 3.22875,-3.22873 7.20446,-5.99968 11.92713,-8.31285 1.15656,0.1687 1.80713,0.25303 1.95172,0.253 0.8915,-0.16864 1.54207,-0.25297 1.95171,-0.253 l 0,0.253 c -2e-5,0.36146 -0.40964,0.60241 -1.22886,0.72285 -2e-5,-0.14454 -0.0723,-0.21682 -0.21685,-0.21685 -2e-5,0.21689 -1.22888,0.93974 -3.68657,2.16857 l 0,0.253 0.506,0 c 4.86721,-2.26492 8.27668,-3.3974 10.22842,-3.39743 l 1.95171,0 c 4.21663,-17.63765 6.73458,-26.98658 7.55385,-28.04683 m -8.27671,26.56497 0,0.506 c -1.37345,0.31328 -2.91554,0.55423 -4.62628,0.72286 l 0,-0.506 c 2.28902,-0.48187 3.83111,-0.72282 4.62628,-0.72286 m -17.81841,12.18014 0,0.506 0.253,0 1.22886,-0.97586 0.253,0 0,0.72286 c -2e-5,0.16869 -0.0844,0.25302 -0.253,0.253 l 0.253,0.46985 c -0.98792,0.53012 -1.48187,1.34936 -1.48186,2.45771 -0.26506,2e-5 -0.66263,0.48193 -1.19271,1.44572 -0.28916,2e-5 -0.61444,0.89154 -0.97586,2.67457 -1.0602,1.13249 -2.12039,3.0842 -3.18057,5.85513 -0.16867,0.86744 -0.253,1.36139 -0.253,1.48186 l 0.506,0.21686 c 6.38522,1e-5 13.28849,-5.84308 20.70984,-17.52927 0.48188,2e-5 1.21678,-2.19264 2.20471,-6.578 l 0,-0.253 -0.97585,0 c -2.40955,4e-5 -5.25278,0.97589 -8.52971,2.92757 -3.18058,1.56622 -6.03587,3.67455 -8.56585,6.325 m 11.45728,5.85513 0.759,0 0,-0.46985 -0.253,0 c -0.33736,0.0482 -0.50603,0.20482 -0.506,0.46985"
         style="marker:none"
         id="path3012" />
      <path
         d="m 250.19633,625.64213 0.43372,0 c 1.4457,5e-5 3.36126,1.39757 5.74671,4.19256 l 0,0.65057 c -0.31326,3.10833 -1.06021,4.66247 -2.24086,4.66243 -0.65059,4e-5 -1.8192,-0.74691 -3.50585,-2.24086 -1.66258,-1.37337 -2.77096,-2.61428 -3.32514,-3.72271 l 0,-0.90357 c 0.96379,-1.75889 1.9276,-2.63837 2.89142,-2.63842 m -4.44557,17.6377 c 2.65047,0.6747 3.9757,1.56622 3.97572,2.67456 1.63846,0.81928 2.45769,2.43365 2.45771,4.84314 -0.55421,5.87926 -1.44573,8.81887 -2.67457,8.81885 -0.72287,1.30116 -1.0843,2.33726 -1.08429,3.10829 l -0.43371,0.21685 -0.253,0 0.253,-1.12043 0,-1.30114 c -0.36144,2e-5 -0.73491,1.02407 -1.12043,3.07214 l -0.43371,0.21686 0.21686,0.43371 c -1e-5,0.31326 -0.14458,0.46988 -0.43372,0.46986 l -0.46986,-0.21686 0,0.43372 0.46986,0.65057 c -0.12048,1.30115 -0.34939,2.10834 -0.68671,2.42157 l 0,1.33728 1.33728,1.30114 -1.12043,1.771 c 0.16866,0.28915 0.253,0.51806 0.253,0.68672 0,0.48191 -0.30119,1.65052 -0.90357,3.50585 l -0.21685,0 -0.65057,-0.43371 0,0.43371 0.43371,0.68671 0,0.21686 c -1e-5,0.14458 -0.0723,0.21686 -0.21686,0.21686 l 0.21686,0.43371 0,0.21686 -0.43371,0 0,-0.65057 -0.68672,0 0,0.21686 c 0.16866,0.28914 0.253,0.506 0.253,0.65057 -0.60238,0.0964 -0.90357,0.61443 -0.90357,1.55414 l -0.43371,0 c -1e-5,-0.67467 -0.59034,-1.33729 -1.771,-1.98786 l -0.43372,0.21686 -0.43371,-0.21686 0.21686,-1.08428 -0.21686,-0.90357 -0.46986,0 0,0.43371 -0.21685,0 c -0.19276,0 -0.40962,-0.21685 -0.65057,-0.65057 l 0,-0.21686 c 4.12027,-15.03539 6.18041,-25.2638 6.18042,-30.68526 0.43371,-1.18063 0.79513,-1.77096 1.08428,-1.77099"
         style="marker:none"
         id="path3014" />
      <path
         d="m 274.44818,643.20754 c 0.19274,0.89156 0.42164,1.33732 0.68671,1.33728 l 0.21686,0 1.55414,-0.21685 0.46986,0.68671 0,0.43371 c -3e-5,0.2169 -0.22893,0.4458 -0.68672,0.68672 0.0482,0.48194 0.49393,0.99998 1.33729,1.55414 l -1.33729,0.43371 c -0.26507,-0.14454 -0.56626,-0.21682 -0.90357,-0.21685 l -0.21685,0 0.21685,0.43371 0,0.253 -0.43371,0 0.21686,0.43371 c -3e-5,0.24099 -1.42164,0.68675 -4.26486,1.33729 l 0,0.21686 0.253,0 c 0.79512,-0.14455 1.45774,-0.21683 1.98786,-0.21686 l 0,0.46986 -3.57814,0.65057 0,-0.43372 -0.65057,0 c -0.33735,3e-5 -0.63854,0.0723 -0.90357,0.21686 -0.6024,-0.12045 -0.90359,-0.26502 -0.90357,-0.43371 -0.74697,0.19279 -1.12045,0.40964 -1.12043,0.65057 l 0.46985,0 0,0.21685 c -1.0602,0.81927 -1.59029,1.42165 -1.59028,1.80714 l -0.43371,0 0,0.43372 0.21685,0 2.024,-1.33729 0.21686,0.46986 -2.024,1.33729 -0.21686,0 -0.43371,-0.21686 0,0.21686 c 0.14456,0.28916 0.21684,0.50602 0.21686,0.65057 -0.28916,0.14459 -0.51806,0.21688 -0.68672,0.21685 l 0.46986,0.68672 0,0.21685 -0.46986,0 0,0.21686 c 2.57818,2e-5 5.4937,1.42164 8.74657,4.26485 1.34931,2.16859 2.54202,4.85521 3.57814,8.05985 l 0,0.90358 c -3e-5,2.0481 -1.42164,3.84319 -4.26486,5.38528 -3.42153,0.62648 -5.13229,1.44571 -5.13228,2.45771 -1.03611,0.0241 -2.22882,0.46986 -3.57814,1.33728 -0.5542,0.62648 -1.97581,1.07224 -4.26485,1.33729 -0.14458,0 -0.21686,-0.0723 -0.21686,-0.21686 l -1.12043,0.21686 -0.90357,0 0,-0.21686 0.21686,-0.46986 -0.43371,-0.21685 -0.68672,0.46985 c -0.28914,0 -0.43371,-0.15661 -0.43371,-0.46985 l 1.12043,-0.43372 0,-0.21685 -1.59029,0 0.46986,0.65057 -0.46986,0 c -0.28914,0 -0.43371,-0.21686 -0.43371,-0.65057 l -0.43372,0 0,0.43371 -0.46985,0 0,-0.43371 c 0,-0.31324 0.30119,-0.46986 0.90357,-0.46986 l 0,-0.21686 -1.55414,0 c 0,0.45781 -0.15662,0.68672 -0.46986,0.68672 l -0.21686,-0.46986 c 0.14457,0 0.21686,-0.0723 0.21686,-0.21686 -1.03609,0 -1.55414,-0.30119 -1.55414,-0.90357 l 0,-0.43371 2.45771,0 c 0.14457,0 0.21686,0.0723 0.21686,0.21685 2.40952,-0.43371 4.43351,-1.02404 6.07199,-1.77099 0.28914,0.14457 0.50599,0.21686 0.65057,0.21685 3.68656,-1.4457 5.92741,-2.42156 6.72257,-2.92757 l 0.21686,-0.43371 0,-0.21686 c -6.77077,2.98782 -11.6139,4.48172 -14.52942,4.48171 l -1.59029,0 c 1e-5,-0.4578 -0.44575,-0.83128 -1.33728,-1.12042 l 0,-0.253 0.21686,-0.43372 c 0.81924,0.14458 1.42162,0.21687 1.80714,0.21686 6.14427,-0.9879 11.21631,-2.69866 15.21613,-5.13228 l 0,-0.253 -0.21686,0 c -1.34934,0.74696 -2.25291,1.12044 -2.71071,1.12043 l 0,-0.43372 c 0.86742,-0.4578 1.39751,-0.6867 1.59028,-0.68671 l 0,-0.21686 -0.21685,0 -2.92757,0.90357 0,-0.21685 c 2.02398,-1.13247 3.81908,-2.25289 5.38528,-3.36129 l 0.21686,-0.43371 0,-0.253 c -4.26487,-0.65056 -7.18039,-1.54208 -8.74657,-2.67457 -1.15657,-1.32522 -2.56614,-3.86726 -4.22871,-7.62614 l 0,-1.08428 c 0,-1.42159 1.33728,-3.1444 4.01185,-5.16843 l 0.21686,0 0,0.43372 0.46986,0 c 3.42151,-2.3613 5.36117,-3.84315 5.81899,-4.44557 2.43361,-1.20472 5.26479,-1.8071 8.49357,-1.80714 m -11.85485,9.39713 0.43371,0 c 0,-0.26502 0.90356,-1.08425 2.71072,-2.45771 -2e-5,-0.40959 0.51803,-0.71078 1.55414,-0.90357 l 0,-0.43371 c -3.13239,1.61441 -4.69858,2.8794 -4.69857,3.79499 m -1.12043,17.24013 0.21686,0 0,0.43372 -0.65057,0 c 0.0241,-0.28914 0.16866,-0.43371 0.43371,-0.43372 m 0.43372,1.33729 0.21685,0 c 0,0.31324 -0.96381,0.759 -2.89142,1.33728 l -0.43372,0 0,-0.43371 3.10829,-0.90357"
         style="marker:none"
         id="path3016" />
      <path
         d="m 294.14601,623.61813 c 1.83122,0.91567 2.74684,1.759 2.74686,2.53 -2e-5,0.7711 0.27707,1.4819 0.83128,2.13242 -2e-5,0.89158 -0.42168,2.02405 -1.265,3.39743 -1e-5,-0.2891 -0.14459,-0.43367 -0.43371,-0.43372 l -0.21686,0 c -1.68668,5.97566 -2.53001,9.21646 -2.53,9.72242 -0.5542,1.27709 -0.83129,2.62642 -0.83128,4.048 0.31322,4e-5 0.51803,0.34942 0.61443,1.04814 -2e-5,0.31327 -0.42168,0.66265 -1.265,1.04814 -0.98792,3.83117 -1.83125,6.30093 -2.53,7.40928 0.14456,0.77108 0.21685,1.33731 0.21686,1.69872 l -0.21686,0.43371 0,0.21686 0.21686,0 c 2.50589,-4.4094 5.96355,-8.57787 10.37299,-12.50542 1.44569,-0.8433 2.99983,-1.26496 4.66242,-1.265 1.22883,4e-5 2.56612,2.12042 4.01186,6.36114 -3e-5,0.12051 -0.0723,0.18074 -0.21686,0.18071 l 0.21686,1.30114 c -0.74698,4.65041 -1.38551,6.97559 -1.91557,6.97557 -0.28917,-0.33731 -0.43374,-0.61441 -0.43372,-0.83129 l -0.39757,0 c -1.1325,1.59031 -1.69874,2.57821 -1.69871,2.96372 0.28912,0.0241 0.43369,0.15664 0.43371,0.39757 l 0,0.21685 c -2e-5,0.28917 -0.28916,0.43374 -0.86742,0.43372 l 0.21685,0.43371 c -2e-5,0.81926 -0.56626,2.57821 -1.69871,5.27685 l 0.21686,0 c 0.43369,2e-5 0.65054,0.14459 0.65057,0.43372 -0.81926,2.81915 -1.53007,4.22872 -2.13243,4.22871 l 0.21686,1.04814 c -0.57831,1.13248 -0.92769,2.33724 -1.04814,3.61428 l -0.43372,0 0.21686,-1.91557 0,-0.21685 -0.21686,0 c -2e-5,0.28915 -0.28916,0.71081 -0.86743,1.265 l -0.39757,-0.21686 -0.65057,0.43371 c -0.69878,-0.91561 -1.54211,-1.40956 -2.53,-1.48185 l -0.21685,-0.43372 c -2e-5,-2.02399 1.9035,-7.38517 5.71056,-16.08355 0.98788,-2.67455 1.48184,-4.22869 1.48186,-4.66243 l 0,-0.39757 -0.21686,0 c -3.90344,4.89135 -7.28882,9.6863 -10.15613,14.38484 -0.31325,2e-5 -1.15658,1.26502 -2.53,3.795 -0.62648,0.38553 -0.97587,0.87949 -1.04814,1.48186 l -0.43372,0.21685 -0.43371,0 0.21686,-0.39757 0,-0.65057 c -0.43372,0.14458 -0.65058,0.56625 -0.65057,1.265 l 0,0.21686 c 0.4337,10e-6 0.65056,0.14458 0.65057,0.43371 -0.84334,2.50591 -1.26501,4.26486 -1.265,5.27685 -0.84334,1.13248 -1.62643,1.69872 -2.34928,1.69872 -2.86734,-1.518 -4.62629,-2.99985 -5.27686,-4.44557 4.24076,-13.5174 7.91527,-26.36014 11.02356,-38.52825 1.73485,-7.37309 3.07213,-11.89094 4.01186,-13.55356 l 0.43371,0 m 13.33671,27.50469 c -0.43375,1.06022 -0.6506,1.98788 -0.65058,2.783 l 0,0.21685 0.21686,0 c -3e-5,-0.0963 0.27707,-1.02402 0.83129,-2.78299 l -0.39757,-0.21686 m -3.83114,14.20413 0,0.65057 c -3e-5,0.26506 -0.1446,0.39758 -0.43372,0.39757 l -0.18071,0 0,-0.39757 c -3e-5,-0.21684 0.20478,-0.4337 0.61443,-0.65057"
         style="marker:none"
         id="path3018" />
      <path
         d="m 351.25168,618.23285 0.68671,0 c 1.44569,6e-5 2.32517,0.95182 2.63843,2.85528 0.67464,6e-5 1.18064,1.18072 1.518,3.542 l 0,0.21685 c -2.55412,9.97547 -4.83112,16.50527 -6.831,19.58942 -1.15659,2.48184 -1.73487,3.87936 -1.73485,4.19256 l 0,0.21686 2.42157,0 c 4.84311,3e-5 7.92729,3.60226 9.25256,10.80671 -3e-5,2.65049 -0.37351,3.97572 -1.12043,3.97571 l -0.65057,0 c -3e-5,0.24096 -0.44579,0.74696 -1.33728,1.51799 0.31321,0.0482 0.46983,0.20483 0.46985,0.46986 -0.86745,0.98792 -1.53007,2.15654 -1.98785,3.50586 0.14454,0.28915 0.21683,0.50601 0.21686,0.65057 -0.50603,0.0723 -1.16865,0.8072 -1.98786,2.20471 -0.93974,0.38553 -1.45778,0.75901 -1.55414,1.12043 l -1.08429,-0.21686 c -0.28916,0.14458 -0.50602,0.21686 -0.65057,0.21686 -2e-5,-0.43371 -0.15664,-0.65057 -0.46985,-0.65057 -0.19279,1.012 -0.40964,1.518 -0.65057,1.51799 l -1.55415,-0.65057 -1.08428,0.65057 -0.21686,0 c -0.14459,1e-5 -0.21687,-0.0723 -0.21685,-0.21685 -0.55421,0.21686 -1.21683,0.66262 -1.98786,1.33728 0.14456,0.28915 0.21684,0.50601 0.21686,0.65057 l -0.65057,0 0.21685,-0.43371 0,-0.21686 -0.21685,0 c -1.18068,0.57829 -1.98787,0.86743 -2.42157,0.86743 l -0.46986,0 0,-0.43371 c 2.60227,-0.43371 6.72255,-3.44561 12.36085,-9.03571 2.33721,-2.74684 3.50582,-5.61417 3.50585,-8.60199 l 0,-0.21686 c -3e-5,-0.31322 -0.80722,-0.53007 -2.42157,-0.65057 -1.83126,2e-5 -4.3974,0.73493 -7.69842,2.20471 -2.67458,2e-5 -4.28896,1.25297 -4.84314,3.75886 -10e-6,0.28915 -1.77101,4.10824 -5.31299,11.45727 -0.14458,0.79515 -0.87949,2.25291 -2.20472,4.37328 l -0.65057,0 c -0.28914,0.89153 -0.57829,1.33729 -0.86743,1.33729 l -0.21685,0 c -0.48191,-0.14457 -0.92767,-0.95176 -1.33729,-2.42157 -0.93971,0 -1.81919,-1.02404 -2.63842,-3.07214 1.61437,-5.13227 6.16837,-15.71006 13.66199,-31.7334 3.80702,-7.37309 6.67435,-15.08356 8.60199,-23.13141 0.67464,-1.03603 1.10835,-1.55408 1.30114,-1.55414 m -4.40943,56.20209 0.21686,0 c 0.31322,0.0241 0.46984,0.16867 0.46986,0.43372 l -0.46986,0.21685 -0.21686,0 c -0.28916,10e-6 -0.43373,-0.14456 -0.43371,-0.43371 l 0.43371,-0.21686 m -2.42156,1.518 0.68671,0 0,0.21686 c -2e-5,0.19276 -0.37349,0.56624 -1.12043,1.12042 l -0.21686,0 -0.43371,-0.21685 c -2e-5,0.28914 -0.14459,0.43371 -0.43371,0.43371 l -0.68672,0 0,-0.43371 c 0.38551,0 1.12041,-0.37347 2.20472,-1.12043 m -3.289,0.21686 0.21686,0.43371 -0.43372,0.253 -0.21686,-0.46986 0.43372,-0.21685 m 0,1.33728 0.65057,0 0,0.43372 -1.08429,0.21685 0,-0.21685 c 0.0482,-0.28914 0.19275,-0.43372 0.43372,-0.43372"
         style="marker:none"
         id="path3020" />
      <path
         d="m 388.29807,643.31597 1.73486,0 c 0.19273,3e-5 0.62645,0.57832 1.30114,1.73485 l -0.43371,0.65057 c 0.3373,4e-5 0.62644,0.73494 0.86743,2.20472 0.45777,0.1446 0.68668,0.57831 0.68671,1.30114 -1.1807,1.37346 -2.34931,3.92755 -3.50585,7.66228 -0.43375,0.14459 -0.79517,0.93973 -1.08429,2.38542 l 0.21686,0.43372 c -1.90355,4.19258 -2.85531,6.3732 -2.85529,6.54185 -0.28916,0.0482 -0.43373,0.20482 -0.43371,0.46986 l 0.43371,0 0,0.43371 c -1.34935,1.03611 -2.21678,2.12039 -2.60228,3.25285 0.14455,0.26506 0.21684,0.5542 0.21686,0.86743 -1.06021,1.75896 -2.01197,2.85529 -2.85529,3.289 -1e-5,0.72286 -0.14459,1.08429 -0.43371,1.08428 l 0.21686,0.43372 0,0.21686 c -0.53012,0 -1.39754,0.7349 -2.60229,2.20471 -0.19277,0 -0.63854,0.28914 -1.33728,0.86743 l 0.21686,0.43371 c -0.86745,0.77105 -1.30116,1.27705 -1.30115,1.518 l -2.60228,2.63842 -1.12043,-0.65057 c -2.28905,2.31314 -3.66248,3.46971 -4.12028,3.46971 -0.24096,0 -0.54215,0.15662 -0.90357,0.46986 l -0.21686,0 c -0.21686,-10e-6 -0.506,-0.3012 -0.86742,-0.90357 0.0482,-0.28915 0.19275,-0.43372 0.43371,-0.43371 0.14457,0.28913 0.21685,0.50599 0.21686,0.65057 0.28913,-10e-6 0.80718,-0.14458 1.55414,-0.43372 l -0.21686,-0.43371 3.25286,-2.60228 0,-0.21686 -0.21686,0 c -1e-5,0.43371 -0.14458,0.65057 -0.43372,0.65057 l -1.08428,-0.21686 c -0.43372,0.4819 -0.65058,0.84333 -0.65057,1.08429 l -0.21686,0 -0.43371,-0.21686 c -10e-6,0.40962 -1.38548,1.20476 -4.15643,2.38543 l 0,0.21685 0.86743,0 c 0,-0.14457 0.0723,-0.21686 0.21686,-0.21685 l 0,0.43371 c -0.72286,0 -1.08429,0.15661 -1.08429,0.46986 l -2.20471,-0.46986 c 0,0.16866 -0.0723,0.25299 -0.21686,0.253 l 0.21686,0.43372 -3.68657,1.95171 c -0.21685,-10e-6 -0.43371,-0.21687 -0.65057,-0.65057 1e-5,-1.0602 1.15658,-2.01196 3.46971,-2.85529 l 0,-0.65057 -0.21685,0 c -0.62648,0.43371 -1.63848,0.86742 -3.036,1.30114 l 0.21686,-0.43371 -0.43372,0 0,0.21686 0.21686,0.43371 c -0.506,0.16866 -0.79514,0.25299 -0.86743,0.253 l 0.21686,-0.46986 -0.46986,0 c 1e-5,0.33733 -0.28914,0.56624 -0.86743,0.68672 1e-5,0.19275 -0.86742,0.4819 -2.60228,0.86743 10e-6,0.33732 -0.36142,0.55418 -1.08429,0.65057 l -0.21685,-0.43372 0,-0.43371 c 11.83075,-4.45762 20.26407,-10.86694 25.29998,-19.22798 l 0,-0.21686 c -2.0963,1.59029 -4.06006,2.38543 -5.89128,2.38543 -1.61439,0 -3.14444,-0.93971 -4.59014,-2.81914 0.14456,10e-6 0.21685,-0.0723 0.21685,-0.21686 -3.34923,-2.67456 -5.02385,-5.51779 -5.02385,-8.52971 0,-5.78282 2.12038,-10.87896 6.36114,-15.28841 l 0.65057,0 c 0.86742,0.86746 1.51799,1.30117 1.95171,1.30114 0.40961,0.62651 0.69875,1.4337 0.86743,2.42157 -0.14458,0.28917 -0.21687,0.50603 -0.21686,0.65057 l 0.43372,-0.21686 0.21685,0.43371 c -10e-6,0.0723 -0.72286,1.38551 -2.16857,3.93957 l 0,0.21686 0.21686,0.43371 c -0.69877,0.86746 -1.13248,1.30117 -1.30114,1.30115 l 0,0.43371 0.43371,-0.21686 0.43372,0 c -10e-6,0.48193 -0.79515,2.51798 -2.38543,6.10814 -0.16867,0.96383 -0.253,1.91559 -0.253,2.85528 0.60238,0.28916 1.12042,0.43373 1.55414,0.43372 4.40942,10e-6 10.89102,-6.55388 19.44484,-19.6617 0.0964,4e-5 0.53007,-0.43368 1.30114,-1.30114 m 1.95172,6.97556 c 0.38549,3e-5 0.74692,-0.57825 1.08428,-1.73485 -0.72288,0.6506 -1.08431,1.22888 -1.08428,1.73485 m -20.74599,-0.65057 c 0,0.1687 -0.0723,0.38556 -0.21685,0.65057 l 0.21685,0 0.21686,-0.43371 0,-0.21686 -0.21686,0 m 20.96284,0.86743 c -3e-5,0.26508 -0.21688,0.63855 -0.65057,1.12043 l 0.21686,0.43371 c -0.33736,3e-5 -0.55422,0.36146 -0.65057,1.08429 l 0,0.21685 0.21686,0 1.08428,-2.63842 0,-0.21686 -0.21686,0 m -2.38542,5.92742 0,0.21686 0.21685,0 0.21686,-0.90357 c -0.28917,2e-5 -0.43374,0.22893 -0.43371,0.68671 m -10.69828,9.361 0,0.21685 c 0.19275,2e-5 0.4096,-0.21684 0.65057,-0.65057 l -0.21686,0 c -0.28915,0.0482 -0.43373,0.19278 -0.43371,0.43372 m -6.10814,3.72271 0,0.21685 0.43372,0 c 1.01198,-0.14456 1.51798,-0.36141 1.518,-0.65057 l -1.95172,0.43372 m -2.42157,0.21685 0,0.21686 1.30115,0 0,-0.21686 -1.30115,0 m 7.19243,8.31285 0,0.21686 0.46985,0 0.21686,-1.55414 c -0.45782,0.16867 -0.68673,0.61443 -0.68671,1.33728 m -4.77086,3.90343 0,0.253 c 1.01199,-0.38553 1.51799,-1.12043 1.518,-2.20471 -0.24096,0.0241 -0.74696,0.67466 -1.518,1.95171 m 0.43372,0.90357 0,0.43371 0.21685,0 c 0.19275,0 0.40961,-0.21686 0.65057,-0.65057 l 0,-0.21685 c -0.36143,0.28914 -0.65058,0.43371 -0.86742,0.43371 m -11.38499,1.95171 c 0.0482,0.28914 0.19276,0.43371 0.43371,0.43372 0,-0.28915 0.22891,-0.43372 0.68671,-0.43372 l 0,-0.21685 -0.43371,0 c -0.28914,0.14456 -0.51805,0.21685 -0.68671,0.21685 m -3.46971,3.50586 0.43371,0 c 0.28915,-1e-5 0.43372,-0.14458 0.43371,-0.43372 l -0.43371,0 c -0.28914,0.0482 -0.43371,0.19276 -0.43371,0.43372 m -1.771,0 0.21685,0 0,0.21685 c 1e-5,0.28914 -0.14456,0.43371 -0.43371,0.43372 l -0.43371,0 c 0,-0.21687 0.21686,-0.43372 0.65057,-0.65057 m -7.19243,0.86742 0.86743,0 c 1e-5,0.21685 -0.21684,0.43371 -0.65057,0.65058 l -0.65057,0 0,-0.21686 c 0.0482,-0.28915 0.19278,-0.43372 0.43371,-0.43372 m 5.89129,0 0,0.43372 1.30114,-0.21686 0.68671,0 0,-0.21686 0.21686,0 c 0.28914,0.0482 0.43372,0.19276 0.43371,0.43372 1e-5,0.28913 -1.31318,0.86742 -3.93957,1.73485 l -0.43371,-0.21685 c -0.26504,0.14456 -0.55418,0.21684 -0.86743,0.21685 l 0,-0.21685 c 10e-6,-0.24097 0.43372,-0.53011 1.30114,-0.86743 l -0.21685,-0.43371 0,-0.21686 0.21685,0 c 0.14458,-10e-6 0.21687,0.0723 0.21686,0.21686 l 1.08429,-0.65058 m 5.45756,0.65058 c 0.28915,0.0482 0.43372,0.19275 0.43372,0.43371 0,0.28913 -1.08429,0.79513 -3.25286,1.518 l -0.21686,0 3.036,-1.95171 m -10.48142,0.21685 0.65057,0.43372 c 10e-6,-0.14459 0.0723,-0.21687 0.21686,-0.21686 0.14458,0.24094 0.21687,0.60237 0.21686,1.08428 l 0.21685,0 0.43372,-0.21685 0.253,0.43371 0,0.21686 c 1e-5,0.45779 -1.16861,0.90356 -3.50586,1.33728 2e-5,-0.28915 -0.14455,-0.43372 -0.43371,-0.43371 -0.72284,-10e-6 -1.08427,0.28913 -1.08428,0.86743 l -0.46986,0 c -0.69875,-0.38554 -1.06017,-0.67468 -1.08429,-0.86743 2e-5,-0.21687 0.21688,-0.44578 0.65057,-0.68672 0.36145,0.31323 0.66264,0.46985 0.90358,0.46986 0.26506,-0.16868 0.48191,-0.25301 0.65057,-0.253 10e-6,0.16866 0.0723,0.25299 0.21685,0.253 2e-5,-0.31325 0.72287,-0.61444 2.16857,-0.90357 l 0,-0.21686 -0.21685,-0.43371 c 0.14458,-10e-6 0.21686,-0.0723 0.21685,-0.21686 -0.28913,-10e-6 -0.4337,-0.14458 -0.43371,-0.43371 l 0.43371,-0.21686 m -5.89128,1.518 0.65057,0 0,0.43371 -0.65057,0 0,-0.43371 m 11.13199,0.43371 1.30114,0 0,0.46986 -1.08428,0 -0.43371,0.21686 -0.21686,-0.46986 0.43371,-0.21686 m -5.45756,2.20472 c 0.28915,0.14455 0.50601,0.21684 0.65057,0.21685 1e-5,-0.14458 0.0723,-0.21687 0.21685,-0.21685 l 0.21686,0.43371 -0.43371,0.21686 -1.30115,0 0,-0.43372 c 0.14459,-10e-6 0.36145,-0.0723 0.65058,-0.21685"
         style="marker:none"
         id="path3022" />
      <path
         d="m 418.91104,642.01483 c 2.69865,3e-5 4.04798,0.57832 4.048,1.73485 1.15655,1.59032 1.73484,2.93965 1.73485,4.048 l -0.57828,0.28914 c 0.38551,0.62651 0.57827,1.20479 0.57828,1.73486 -0.38554,1.22888 -0.5783,1.99993 -0.57828,2.31314 4.98769,-5.78282 10.1802,-8.67424 15.57756,-8.67428 3.8552,0.45784 5.78281,2.28908 5.78285,5.49371 1.34929,1.80717 2.02396,4.60221 2.024,8.38513 -4e-5,1.6626 -0.57833,3.67454 -1.73486,6.03586 l 0.57829,0.28914 -0.57829,2.60228 -0.57829,0 0,-1.15657 -0.57828,0 c -4e-5,1.5903 -0.48194,2.65049 -1.44571,3.18057 -1.6867,6.93943 -3.03603,10.40914 -4.048,10.40913 -3e-5,0.38553 -0.19279,0.57829 -0.57829,0.57829 l -0.28914,0 c -0.38555,0 -0.57831,-0.19276 -0.57828,-0.57829 l -0.57829,0.28915 c -0.57831,-0.0723 -1.25298,-0.55419 -2.024,-1.44572 -0.77107,10e-6 -1.15659,-0.19275 -1.15657,-0.57828 l 0,-0.57829 c -2e-5,-0.53009 1.44569,-4.4817 4.33714,-11.85484 1.3493,-5.01179 2.02397,-8.95135 2.024,-11.81871 l -0.57828,-0.28914 c -1.51803,0.69879 -2.86736,1.46983 -4.048,2.31314 -3e-5,-0.3855 -0.19279,-0.57826 -0.57829,-0.57828 -1.99992,1.39754 -3.25287,3.03602 -3.75885,4.91542 -1.30116,1.06021 -3.60225,3.74682 -6.90328,8.05985 -1.68668,10e-6 -2.93963,0.96382 -3.75885,2.89143 l 0.28914,1.15657 c -1.68668,5.97561 -2.84325,8.96342 -3.46971,8.96342 l -0.28915,0 c -1.9999,-1.73486 -3.34923,-2.60228 -4.04799,-2.60229 l -3.18057,-3.46971 0,-0.57828 c 1.80714,-3.59018 3.92752,-11.48136 6.36114,-23.67355 0.57828,-5.20453 1.4457,-7.80682 2.60228,-7.80685"
         style="marker:none"
         id="path3024" />
      <path
         d="m 477.89614,643.02683 c 1.08425,3e-5 1.6264,0.54217 1.62643,1.62642 l 0,2.09629 c -0.81927,0.74698 -2.21679,1.21684 -4.19257,1.40957 l 0.21686,0.46985 c -3e-5,0.31327 -0.15665,0.46989 -0.46986,0.46986 -0.50603,-0.31321 -0.97588,-0.46983 -1.40957,-0.46986 l -0.21686,0 c -5.32506,1.06022 -9.45739,2.9276 -12.39699,5.60214 -1.37344,1.32526 -2.0722,2.09631 -2.09628,2.31314 l 0.253,0.46986 -0.253,0.46986 c 0.16866,0.31326 0.25299,0.55421 0.253,0.72285 -1.71077,1.75897 -2.72277,3.46973 -3.036,5.13228 -1.18067,1.27707 -1.80715,2.51797 -1.87943,3.72271 l 0.46986,0.253 0.68672,0 c 3.90341,2e-5 8.19235,-1.86736 12.86684,-5.60213 l 0.46986,0.21685 -0.253,0.46986 0,0.46986 c 0.69874,10e-6 2.09626,-2.25289 4.19257,-6.75871 l 0.93971,-0.72286 2.34928,0 c -2e-5,-0.45778 0.31321,-0.84331 0.93972,-1.15657 l 0,0.46986 -0.46986,0.68671 c 0.14454,3e-5 0.21683,0.0844 0.21686,0.253 0.79511,-0.48188 1.3493,-0.72283 1.66257,-0.72285 -0.48194,0.72288 -0.72289,1.34935 -0.72286,1.87942 l 0.72286,0 c -1.73489,4.91544 -3.21674,10.51758 -4.44557,16.80642 l -0.253,1.62642 0,1.19272 c 0.31321,1.10838 0.46983,1.72281 0.46986,1.84328 l 0,1.87943 -0.46986,0 c -1.59031,0 -2.83121,-1.63848 -3.72271,-4.91543 l -1.40957,-1.84328 -0.21686,0 c -3.54201,2.16857 -6.66234,3.25286 -9.36099,3.25285 l -0.21686,0 c -5.0359,1e-5 -8.38514,-4.2046 -10.0477,-12.61384 l 0,-0.21686 c 0,-3.25283 3.81908,-8.08392 11.45727,-14.49327 6.38522,-4.19254 12.30059,-6.28882 17.74613,-6.28885 m 3.50585,7.0117 0.21686,0.43372 c -1.83127,2.50593 -2.84326,3.75888 -3.036,3.75885 l 0,-1.15657 c 0.79512,-1.32521 1.73483,-2.33721 2.81914,-3.036"
         style="marker:none"
         id="path3026" />
      <path
         d="m 507.09955,618.05213 c 1.46978,6e-5 2.39745,1.36144 2.783,4.08414 l 0,0.759 c -3e-5,0.16872 -0.0844,0.25306 -0.253,0.253 0.16864,0.3133 0.25297,0.5663 0.253,0.759 l 0,0.759 0.253,0 c -0.6747,2.14453 -2.12041,5.0239 -4.33714,8.63814 l 0,0.54214 4.84314,0 c 8.89109,-0.69872 20.93869,-2.14443 36.14282,-4.33714 l 0,0.506 -0.506,0 0,0.253 0.759,0 0,0.506 c -5.42148,0.57833 -8.13219,1.08433 -8.13213,1.518 l 0,0.253 0.506,0 0,0.506 c -6e-5,0.33738 -0.16873,0.50604 -0.506,0.50599 l -0.759,0 0,-0.50599 0.759,0 c -0.16873,-0.31319 -0.25306,-0.56619 -0.253,-0.759 l -0.759,0 0.253,0.506 c -0.33739,0.0723 -0.50606,0.24099 -0.506,0.506 0.16861,4e-5 0.25294,0.0844 0.253,0.25299 l -0.506,0.28915 -0.54214,-0.28915 c -0.3133,0.19281 -0.5663,0.28919 -0.759,0.28915 l -1.012,-0.28915 -1.518,0.28915 c 0.16861,-0.53005 0.67461,-0.7951 1.518,-0.79514 l 0,-0.253 -0.506,0 -4.08414,0.506 0.54214,0.79514 -0.253,0.506 c 0.36138,4e-5 0.69871,0.0844 1.012,0.253 2.62633,-0.50596 4.05999,-0.75896 4.301,-0.759 l 0,0.253 0.506,-0.253 0.54214,0 0,0.506 0.759,0 c -6e-5,-0.19272 0.0843,-0.44572 0.253,-0.759 l 1.265,0.253 0.506,0 0,-0.54215 0.506,0 1.265,0.28915 0,-0.28915 c 1.03603,0.241 1.55407,0.50605 1.55414,0.79515 l 0,0.253 -2.06014,0 0,0.253 1.012,0 0,0.506 -0.253,0 c -2.48187,0.50604 -5.02391,0.75904 -7.62614,0.759 l 0,-0.506 -0.506,0.253 -1.518,0 0,0.506 1.012,0 0,0.50599 -0.253,0 c -4.91547,0.40967 -7.37318,0.83133 -7.37314,1.265 l 0.253,0 1.518,-0.253 0.253,0 0,0.506 -1.012,0 c 0.33729,0.40966 0.50596,0.747 0.506,1.012 l 1.012,0 0,-0.506 1.265,0.253 0.253,0 0,-0.759 -0.253,0 c -0.31329,0.16871 -0.56629,0.25304 -0.759,0.253 l -0.253,-0.506 0,-0.253 1.265,-0.253 1.04814,0 0,1.012 -0.54214,0 c 0.36138,0.40966 0.54209,0.747 0.54214,1.012 -0.19281,0.33738 -0.28919,0.60242 -0.28914,0.79514 0.19271,4e-5 0.28909,0.0844 0.28914,0.253 0.31319,-0.16862 0.56619,-0.25296 0.759,-0.253 l -0.253,-1.30114 0.759,0.506 0.759,0 c 0.33728,4e-5 0.50595,-0.16862 0.506,-0.506 0.67461,0.16871 1.26494,0.43376 1.771,0.79515 l 1.012,0 0,-0.54215 -0.253,-0.506 c 0.43366,-0.33729 0.86737,-0.50595 1.30114,-0.506 l -0.28914,-0.506 0.28914,0 c 1.7348,0.67471 2.66246,1.01204 2.783,1.012 0.33727,-0.16862 0.59027,-0.25296 0.759,-0.253 l 0,0.506 c -6e-5,0.241 -0.42173,0.59038 -1.265,1.04814 l -2.024,0 c -6e-5,0.50604 -0.0844,0.75904 -0.253,0.759 -1.7831,-0.16862 -2.80715,-0.25296 -3.07214,-0.253 -5e-5,0.33738 -0.16872,0.50604 -0.506,0.506 l -0.506,-0.253 c -5e-5,0.38557 -0.59038,0.63857 -1.771,0.759 l 0,-0.253 -0.506,0.253 -0.54214,-0.253 c -5e-5,0.62652 -6.19251,1.46985 -18.57741,2.53 l -8.13214,0 c -0.38554,4e-5 -0.72288,0.0844 -1.012,0.253 -0.28916,-0.16863 -0.62649,-0.25296 -1.012,-0.253 l -1.771,0 c -0.28916,4e-5 -0.89154,1.19275 -1.80714,3.57814 l -0.759,0.506 -0.506,-0.253 -0.75899,1.012 c 0.33731,0.1687 0.59031,0.25303 0.75899,0.253 l 0,0.253 c -10e-6,0.33736 -0.16868,0.50603 -0.506,0.506 l -0.25299,0 0,-0.506 -0.253,0 0,1.012 0.253,0 c -2e-5,0.43374 -1.3614,2.89145 -4.08414,7.37314 -2e-5,0.77106 -0.50601,1.54211 -1.518,2.31314 -10e-6,0.96382 -0.42168,1.63849 -1.265,2.02399 -0.67468,1.03612 -1.01201,1.71078 -1.012,2.024 0.16866,0.33735 0.25299,0.6024 0.253,0.79515 l -0.506,0.25299 0.253,0.506 0,0.253 -0.253,0 -0.506,-0.253 -0.28914,1.265 c 0.19275,0.33735 0.28913,0.59035 0.28914,0.759 -0.36143,2e-5 -1.04815,0.84335 -2.06014,2.53 -10e-6,0.5783 -0.0843,1.01201 -0.253,1.30114 l 0,0.253 0.253,0 c -10e-6,-0.50599 0.16866,-0.75899 0.506,-0.759 l 0,0.759 c -1.01201,1.0602 -1.518,1.73486 -1.518,2.024 l 0.253,0 c -1.08429,1.71077 -1.92762,3.74681 -2.53,6.10814 l -0.506,0.253 c 0,-0.40962 -1.27704,-1.25295 -3.83114,-2.53 l 0,-1.55414 c 1e-5,-1.68666 2.03605,-7.36108 6.10814,-17.02327 l 8.13214,-15.54142 0,-0.253 c -10.16819,-1.51796 -15.25227,-3.38534 -15.25228,-5.60214 -1.03609,-0.79509 -2.31313,-2.91547 -3.83114,-6.36113 -0.67465,-0.55414 -1.01199,-1.39748 -1.012,-2.53 l 0,-0.253 c 1e-5,-0.2409 0.25301,-0.4939 0.759,-0.759 0.45782,5e-5 2.15653,0.92772 5.09614,2.783 6.98761,2.02404 13.68608,3.03604 20.09541,3.03599 2.77093,-4.60213 4.72264,-8.32484 5.85514,-11.16813 0.93969,-1.99984 2.1324,-3.44555 3.57814,-4.33714 m 36.90183,13.48128 c -7e-5,0.16871 0.0843,0.25304 0.253,0.253 -0.16873,0.67471 -0.68678,1.01204 -1.55415,1.012 -0.2892,-0.16862 -0.62653,-0.25296 -1.01199,-0.253 l 0,-0.506 2.31314,-0.506 m 0.759,1.518 2.27699,0.253 0,0.54214 -0.506,0 c -0.16873,4e-5 -0.25306,-0.0963 -0.253,-0.28915 -0.7952,0.36148 -1.5542,0.54219 -2.27699,0.54215 l -0.253,-0.54215 0,-0.25299 1.012,-0.253 m 0,1.30114 1.012,0 0,0.506 -1.012,0 0,-0.506 m -20.09542,1.012 c 0.3132,4e-5 0.90353,0.16871 1.771,0.506 0.50596,-0.33729 1.09629,-0.50596 1.771,-0.506 -5e-5,-0.33729 -0.16871,-0.50596 -0.506,-0.506 l -1.265,0 c -0.16871,4e-5 -0.25304,0.0844 -0.253,0.253 l -0.506,-0.253 -0.506,0 c -0.33737,0.0482 -0.50604,0.2169 -0.506,0.506 m -3.32514,-0.253 0,1.265 1.265,-0.253 c -0.24099,-0.67463 -0.49399,-1.01196 -0.759,-1.012 l -0.506,0 m 13.22828,0.506 0,0.253 0.506,0 c 0.93966,-0.16863 1.62637,-0.25296 2.06014,-0.253 l 0,-0.253 -1.30114,0 -1.265,0.253 m 5.85514,0.506 1.518,0 0,0.253 c -7e-5,0.33737 -0.16873,0.50604 -0.506,0.50599 l -0.506,0 c -0.3374,5e-5 -0.50606,-0.16862 -0.506,-0.50599 l 0,-0.253 m -15.50528,0.75899 0,0.253 1.771,0 0,-0.253 c -0.33738,5e-5 -0.50604,-0.0843 -0.506,-0.25299 -0.28918,0.16871 -0.71085,0.25304 -1.265,0.25299 m 2.277,-0.25299 0,0.25299 1.518,0 0,-0.25299 -1.518,0 m 8.63814,0 0.253,0.50599 -0.506,0.253 -0.253,-0.506 0.506,-0.25299 m -13.73428,0.50599 -0.253,0.506 0.253,0 c 0.89148,-0.16862 1.74686,-0.25295 2.56614,-0.253 l 0,-0.253 -1.55414,0 c -0.31328,0.16871 -0.56628,0.25305 -0.759,0.253 -4e-5,-0.16862 -0.0844,-0.25295 -0.253,-0.253 m 2.024,0.759 0,0.506 0.253,0 c 0.36139,5e-5 0.5421,-0.16862 0.54214,-0.506 l -0.79514,0 m 7.91528,0 0.253,0.506 0,0.506 -0.759,0 0,-0.506 c 0.0481,-0.33729 0.21681,-0.50595 0.506,-0.506 m 11.71028,0 0.759,0 c -7e-5,0.33738 -0.16873,0.50605 -0.506,0.506 l -0.253,0 0,-0.506 m -33.86583,1.518 0,0.54215 1.265,0.25299 1.30114,0 c -3e-5,-0.55414 1.8553,-0.90352 5.56599,-1.04814 -3e-5,-0.16862 0.26501,-0.25296 0.79515,-0.253 0.55415,0.33738 1.06015,0.50604 1.518,0.506 -4e-5,-0.24091 0.25296,-0.49391 0.75899,-0.759 l 0.759,0 1.265,0.253 c -4e-5,-0.33729 -0.25304,-0.50595 -0.759,-0.506 l -12.46927,1.012 m 27.50469,-0.506 -0.253,0.506 0.253,0 c 0.31318,-0.16862 0.56618,-0.25296 0.759,-0.253 l 0,-0.253 -0.759,0 m -31.04669,0.506 -0.253,0.54215 1.265,0.25299 c 0.12045,4e-5 0.62645,-0.0843 1.518,-0.25299 0.3373,0.1687 0.5903,0.25303 0.759,0.25299 l 0,-0.54214 -1.265,-0.253 c -0.38555,4e-5 -0.72288,0.0844 -1.012,0.253 -0.31326,-0.16862 -0.6506,-0.25296 -1.012,-0.253 m 18.32441,0.54215 1.265,0.25299 0,-0.25299 c -4e-5,-0.36139 -0.16871,-0.54211 -0.506,-0.54215 l -0.253,0 c -0.33737,0.0723 -0.50604,0.25304 -0.506,0.54215 m -5.60213,0.25299 -0.253,0.506 0.506,0.253 2.52999,-0.253 0,-0.253 c -0.93975,4e-5 -1.86741,-0.0843 -2.78299,-0.253 m 7.62613,0 0,0.253 c 0.0482,0.33738 0.21681,0.50604 0.506,0.506 l 0.759,0 c 0.33729,4e-5 0.50595,-0.16862 0.506,-0.506 l -1.771,-0.253 m -10.95127,0.759 c -1.44575,-0.16862 -2.62641,-0.25296 -3.542,-0.253 -0.43375,4e-5 -1.12046,0.0844 -2.06014,0.253 -0.1687,4e-5 -0.25303,-0.0843 -0.253,-0.253 l -3.795,0.506 0,-0.253 c -0.33736,0.16871 -0.6024,0.25304 -0.79514,0.253 l 0,0.759 c 1.20473,4e-5 1.80711,-0.16862 1.80714,-0.506 l 3.036,0.506 0,-0.759 0.506,0 c 0.40959,0.33738 0.74692,0.50604 1.012,0.506 l 0.54214,-0.253 0.506,0.253 c 2.52996,-0.33729 4.39734,-0.50596 5.60214,-0.506 l 0,-0.506 -1.30114,0.253 -0.253,-0.506 -1.012,0.506 m 6.86713,0.506 0.253,0 c 1.37339,-0.16862 2.0601,-0.42162 2.06014,-0.759 l -0.253,0 c -0.31328,0.16871 -0.66266,0.25304 -1.04814,0.253 l 0,-0.253 c -0.67471,0.241 -1.01204,0.494 -1.012,0.759 m 2.56614,-0.759 c 0.0481,0.33738 0.21682,0.50604 0.506,0.506 l 0.506,0 c -4e-5,-0.33729 -0.16871,-0.50596 -0.506,-0.506 l -0.506,0 m -6.61413,0.759 c 0.0481,0.33738 0.21682,0.50604 0.506,0.506 0.33729,4e-5 0.50596,-0.16862 0.506,-0.506 l -1.012,0"
         style="marker:none"
         id="path3028" />
      <path
         d="m 538.79679,642.44854 0,0.28914 c -4e-5,0.36147 -0.18075,1.01204 -0.54214,1.95172 0.55415,3e-5 0.83125,0.18074 0.83129,0.54214 l -0.57829,0.28914 c 0.19272,0.6988 0.2891,1.4337 0.28914,2.20471 0.3132,4e-5 0.96377,-0.55415 1.95172,-1.66257 l 0.25299,0 0,0.28915 c -4e-5,0.0723 -0.36146,1.18069 -1.08428,3.32514 0.91558,3e-5 1.37339,0.55422 1.37343,1.66257 l -0.28915,0 c -0.84337,1.83126 -1.39756,2.74688 -1.66257,2.74685 l 0.28915,1.40957 c -1.30118,1.30117 -1.95175,2.21678 -1.95172,2.74686 l 0.28915,0 0.83128,-0.54215 0,0.28915 c -0.91565,1.22887 -1.37346,2.06016 -1.37342,2.49385 0.16862,0.36145 0.25296,0.63854 0.25299,0.83129 -0.86746,1.27706 -1.78308,2.10834 -2.74685,2.49385 -4.6745,5.15639 -7.36112,7.73457 -8.05985,7.73457 l 0,0.28914 c 0.55416,10e-6 0.83126,0.18072 0.83128,0.54214 -5.01182,4.57809 -9.52967,7.16833 -13.55355,7.77071 l -1.12043,0 c -3.1083,0 -5.42143,-1.10838 -6.93943,-3.32514 -0.40962,0 -1.60233,-1.38547 -3.57813,-4.15643 -1.85534,-1.66256 -2.783,-3.9757 -2.783,-6.93942 0,-5.61417 3.42151,-11.98734 10.26456,-19.11955 -10e-6,-1.01197 1.1927,-2.20468 3.57814,-3.57814 l 0.57829,0.83128 c -0.19278,4e-5 -0.28916,0.0844 -0.28915,0.253 l 0.28915,0 c 0.36141,-0.16863 0.6385,-0.25296 0.83128,-0.253 -2e-5,0.1687 0.0843,0.25304 0.253,0.253 l -0.253,0.57829 0,0.253 c 1.46979,0.38555 2.2047,0.75903 2.20471,1.12042 l 0,0.83129 c -4.79496,5.03593 -7.19243,7.98759 -7.19242,8.85499 0.16866,0.28917 0.25299,0.84336 0.253,1.66257 l 1.40957,-1.08428 0.253,0 c -1.10839,2.07221 -1.66258,3.18058 -1.66257,3.32514 0.19275,0.31325 0.28913,0.67468 0.28914,1.08428 -0.74696,1.18068 -1.67462,3.8673 -2.783,8.05985 -0.16867,10e-6 -0.253,0.0843 -0.25299,0.253 l 0,1.66257 c 6.55388,10e-6 14.77034,-6.55388 24.6494,-19.6617 3.42149,-5.59005 5.63825,-8.45738 6.65028,-8.60199 m -21.07127,6.39728 0.28915,0.54214 0,0.54215 c -2e-5,0.16869 -1.28911,1.37345 -3.86728,3.61428 l -0.28915,-0.54214 1.66257,-1.95172 0,-0.28914 -0.54214,0 0,-0.253 c -2e-5,-0.26502 0.45779,-0.73487 1.37343,-1.40957 0.36141,0.19279 0.6385,0.28917 0.83128,0.28914 0.0482,-0.36139 0.22889,-0.54211 0.54214,-0.54214"
         style="marker:none"
         id="path3030" />
      <path
         d="m 546.92894,641.36426 0.54214,0 c 2.62637,1.08432 3.93956,2.21679 3.93957,3.39742 l 1.69871,1.12043 0,0.253 -0.28914,0.57828 c 0.60237,4e-5 1.07222,0.93975 1.40957,2.81914 l 0.57829,0 c 6.02378,-4.12024 11.63796,-6.18038 16.84255,-6.18042 0.98787,0.1928 1.92759,0.28918 2.81914,0.28914 l 1.12043,0 0,0.253 -0.28914,0.57829 c 1.25291,3e-5 1.99986,0.37351 2.24085,1.12043 -1.06022,0.26508 -1.80717,0.54217 -2.24085,0.83128 -0.36147,-0.19273 -0.63856,-0.28911 -0.83129,-0.28914 l -0.28914,0.57828 3.36128,0 1.40957,0.28915 0,0.54214 -2.81914,0 -1.40957,0.28914 0.57829,0.83129 0,0.28914 c -4e-5,0.38555 -2.71075,1.32527 -8.13214,2.81914 -1.20479,0.93974 -2.04812,1.4096 -2.53,1.40957 l 0,0.28914 0.83129,0 c -3e-5,-0.60235 2.52997,-1.44568 7.58999,-2.53 l 0.28915,0.54215 c -5.01184,1.44574 -10.36097,4.72268 -16.04742,9.83085 -0.48192,10e-6 -2.62639,1.87944 -6.43342,5.63828 -0.74696,10e-6 -1.87944,3.18057 -3.39743,9.5417 -0.12048,1.99991 -0.39758,3.21671 -0.83128,3.65043 -1.5662,-0.0964 -3.43358,-1.68667 -5.60214,-4.77086 0,-0.16866 -0.56624,-0.63851 -1.69871,-1.40957 l 0,-1.12042 c 2.81913,-8.57788 5.15637,-18.60148 7.0117,-30.07083 0,-0.93968 0.19276,-1.40954 0.57829,-1.40957"
         style="marker:none"
         id="path3032" />
      <path
         d="m 586.25233,643.31597 c 3.71064,0.1687 5.86716,0.83132 6.46957,1.98785 l -0.253,0.506 c -1.99993,-0.16863 -2.99988,-0.3373 -2.99986,-0.506 -5.59011,0.84337 -9.90315,2.16861 -12.93913,3.97571 -3.63838,2.6746 -5.45757,4.66246 -5.45756,5.96357 1.42161,0.50602 2.83117,0.75902 4.22871,0.759 5.4214,2e-5 10.97535,-2.48178 16.66184,-7.44542 0.67464,-0.67464 1.0963,-1.50592 1.265,-2.49386 l 0.253,0 c 0.45778,4e-5 1.03606,1.40961 1.73485,4.22871 0.16864,3e-5 0.25297,0.0844 0.253,0.253 -1.1566,3.39746 -2.49388,5.46964 -4.01185,6.21657 -2.09631,1.97583 -3.57816,2.96373 -4.44557,2.96371 l 0,0.253 c 0.0482,0.33735 0.20479,0.50602 0.46986,0.506 1.08426,-0.65055 1.99988,-0.97584 2.74685,-0.97586 l 0,0.21686 c -2e-5,0.31326 -1.40959,0.97588 -4.22871,1.98786 l -0.759,0 0,-0.72286 0.506,0 0,-0.253 -1.22885,0.253 c -0.38555,2e-5 -0.72288,-0.0843 -1.012,-0.253 -0.89154,0.65059 -3.45768,0.97587 -7.69842,0.97586 -0.43373,-0.53008 -1.75896,-1.34932 -3.97571,-2.45772 -0.84334,-1.20473 -1.26501,-2.12035 -1.265,-2.74685 l -0.759,0 c -1.01201,1.80716 -1.59029,4.28897 -1.73486,7.44542 0,3.99982 2.66252,5.99972 7.98757,5.99971 1.63846,1e-5 4.78288,-0.74694 9.43327,-2.24085 l 0.506,0 0,0.506 -1.48185,0.46985 0,0.506 1.73485,-0.253 0.253,0.506 c -0.16869,10e-6 -0.25302,0.0843 -0.253,0.253 0.50598,10e-6 0.75898,0.0843 0.759,0.253 l -0.253,0.46986 c 0.16865,0.33734 0.25298,0.59034 0.253,0.759 -0.40964,0.98791 -0.99997,1.48186 -1.771,1.48185 l 0,0.253 0.253,0 c 1.15655,-0.48189 1.98784,-0.72285 2.49386,-0.72285 l 0,0.46985 c -2.04812,1.01201 -3.12035,1.51801 -3.21671,1.518 l 0,0.253 0.46985,0.72286 c -0.31325,0.0482 -0.46987,0.21686 -0.46985,0.506 l 1.48185,0 0,0.253 -1.265,0.97585 0.253,0 c 0.33732,-0.14456 0.59031,-0.21685 0.759,-0.21685 0.31322,0.14457 0.56622,0.21686 0.759,0.21685 -2.36135,2.16857 -5.60215,3.25286 -9.72242,3.25286 -1.87944,0 -3.03601,-0.40962 -3.46971,-1.22886 l 0,-0.506 0.506,0 0,-0.253 c -2.21677,0 -4.301,-1.57823 -6.25271,-4.73471 0,-0.40961 -0.57829,-1.81918 -1.73485,-4.22871 -1.15658,-3.30103 -1.73486,-5.62622 -1.73486,-6.97556 l 0,-2.96372 c 0,-3.56606 2.24085,-7.55382 6.72257,-11.96327 l 1.73485,-1.22886 c 0.33733,0.0482 0.50599,0.21689 0.506,0.506 -4.31305,3.42155 -6.46957,6.07202 -6.46956,7.95142 -0.50601,0.6506 -0.75901,1.31322 -0.759,1.98786 l 0,1.22886 0.253,0 c -10e-6,-0.36141 0.91561,-2.01193 2.74685,-4.95157 0,-0.55416 0.74695,-1.38545 2.24086,-2.49386 4.55398,-4.65034 9.52964,-6.97553 14.92698,-6.97556"
         style="marker:none"
         id="path3034" />
    </g>
  </g>
</svg>
