<?xml version="1.0" encoding="UTF-8" standalone="no"?>
<!-- Created with Inkscape (http://www.inkscape.org/) -->

<svg
   xmlns:dc="http://purl.org/dc/elements/1.1/"
   xmlns:cc="http://creativecommons.org/ns#"
   xmlns:rdf="http://www.w3.org/1999/02/22-rdf-syntax-ns#"
   xmlns:svg="http://www.w3.org/2000/svg"
   xmlns="http://www.w3.org/2000/svg"
   xmlns:sodipodi="http://sodipodi.sourceforge.net/DTD/sodipodi-0.dtd"
   xmlns:inkscape="http://www.inkscape.org/namespaces/inkscape"
   width="551.49982"
   height="515.35565"
   id="svg2"
   version="1.1"
   inkscape:version="0.48.4 r9939"
   sodipodi:docname="New document 1.2014_05_01_10_28_36.0.svg">
  <defs
     id="defs4" />
  <sodipodi:namedview
     id="base"
     pagecolor="#ffffff"
     bordercolor="#666666"
     borderopacity="1.0"
     inkscape:pageopacity="0.0"
     inkscape:pageshadow="2"
     inkscape:zoom="0.42730242"
     inkscape:cx="294.10229"
     inkscape:cy="127.86399"
     inkscape:document-units="px"
     inkscape:current-layer="layer1"
     showgrid="false"
     fit-margin-top="10"
     fit-margin-left="10"
     fit-margin-right="10"
     fit-margin-bottom="10"
     inkscape:window-width="1920"
     inkscape:window-height="1056"
     inkscape:window-x="1920"
     inkscape:window-y="0"
     inkscape:window-maximized="1" />
  <metadata
     id="metadata7">
    <rdf:RDF>
      <cc:Work
         rdf:about="">
        <dc:format>image/svg+xml</dc:format>
        <dc:type
           rdf:resource="http://purl.org/dc/dcmitype/StillImage" />
        <dc:title></dc:title>
      </cc:Work>
    </rdf:RDF>
  </metadata>
  <g
     inkscape:label="Layer 1"
     inkscape:groupmode="layer"
     id="layer1"
     transform="translate(-72.00005,-189.5)">
    <path
       style="font-size:medium;font-style:normal;font-variant:normal;font-weight:normal;font-stretch:normal;text-indent:0;text-align:start;text-decoration:none;line-height:normal;letter-spacing:normal;word-spacing:normal;text-transform:none;direction:ltr;block-progression:tb;writing-mode:lr-tb;text-anchor:start;baseline-shift:baseline;color:#000000;fill:#000000;fill-opacity:1;stroke:none;stroke-width:2;marker:none;visibility:visible;display:inline;overflow:visible;enable-background:accumulate;font-family:Sans;-inkscape-font-specification:Sans"
       d="m 371.21875,234.125 c -11.80167,0.10492 -15.98194,2.3023 -25.96875,2.78125 -5.31691,0.25499 -8.91381,-0.21158 -12.75,-0.71875 -3.83619,-0.50717 -7.90849,-1.06591 -14,-0.96875 -5.93718,0.0947 -13.66561,2.75526 -21,6.84375 -7.33439,4.08849 -14.2592,9.61841 -18.3125,15.65625 -4.01202,5.97634 -5.06607,13.92062 -5.25,21.40625 -0.18393,7.48563 0.53616,14.59796 0.375,18.6875 -0.28745,7.29421 -4.27711,13.59101 -8.25,19.46875 -0.21341,0.31573 -0.4118,0.6242 -0.625,0.9375 0.0345,4.4e-4 0.091,-4.5e-4 0.125,0 0.71233,0.009 1.86093,-0.14099 3.25,-0.3125 10.77227,-14.09422 14.89613,-16.88848 29.59375,-26.625 8.63392,-5.71959 10.97491,-19.75183 8.15625,-23.90625 -0.46343,3.43727 1.46918,14.48662 -10.46875,22.53125 -10.75282,7.24601 -18.36325,12.93783 -21.90625,17.6875 1.80504,-4.5926 2.02304,-7.13143 2.125,-9.71875 0.17363,-4.40597 -0.58617,-11.39612 -0.40625,-18.71875 0.17992,-7.32263 1.2955,-14.88734 4.9375,-20.3125 3.7785,-5.62848 10.49664,-11.05761 17.625,-15.03125 7.12836,-3.97364 14.7092,-6.50837 20.0625,-6.59375 5.9561,-0.095 9.87581,0.46069 13.71875,0.96875 3.84294,0.50806 7.61838,0.98133 13.09375,0.71875 10.93196,-0.52428 14.85488,-2.98256 28.34375,-2.78125 7.9458,0.11859 16.84632,4.87637 24.71875,11.46875 7.87243,6.59238 14.70983,14.99672 18.5625,22.09375 3.77433,6.95272 4.25839,16.0725 4.3125,24.375 0.027,4.15125 -0.0635,8.08945 0.15625,11.46875 0.1088,1.67329 0.28369,3.22224 0.59375,4.59375 -8.53094,-6.32651 -32.05932,-25.52108 -34.84375,-43.4375 -3.53294,16.86242 31.70013,43.91791 36.3125,47.0625 1.5339,2.23195 3.49133,4.45595 5.28125,6.9375 1.20168,0.14109 2.24076,0.23939 2.9375,0.25 0.25047,0.004 0.55176,0.0266 0.8125,0.0312 -2.5017,-3.38924 -5.6741,-5.86881 -7.375,-8.34375 -0.97245,-1.415 -1.50752,-3.97018 -1.71875,-7.21875 -0.21123,-3.24857 -0.12899,-7.16141 -0.15625,-11.34375 -0.0545,-8.36468 -0.47645,-17.81683 -4.5625,-25.34375 -4.0077,-7.38261 -10.92416,-15.89353 -19,-22.65625 -8.07584,-6.76272 -17.32301,-11.80754 -26.03125,-11.9375 -0.85848,-0.0128 -1.68197,-0.007 -2.46875,0 z M 258.5,336.53125 c 0.40437,3.56536 1.34463,6.59282 2.625,9.375 -0.88914,-3.58417 -1.48204,-6.6102 -2.03125,-8.09375 -0.16488,-0.44536 -0.37445,-0.8675 -0.59375,-1.28125 z m 176.875,1.59375 c -0.42139,0.63824 -0.67013,1.35265 -0.71875,2.15625 -0.0209,0.34544 -0.10238,0.82605 -0.1875,1.375 0.35434,-1.17158 0.65804,-2.34644 0.90625,-3.53125 z m -12.625,30 c -1.35287,1.53696 -2.82286,2.92009 -4.4375,4.0625 -0.0878,0.0621 -0.18869,0.12578 -0.28125,0.1875 -2.18069,6.4289 -3.50912,13.41259 -3,21.6875 -1.90798,-2.26293 -5.08768,-8.88256 -7.53125,-17.78125 -0.86726,0.19199 -1.77042,0.34063 -2.6875,0.5 2.78822,11.38761 7.5265,20.46939 10.4375,24.125 4.67155,5.8665 10.82636,13.32286 13.8125,19.59375 1.98775,4.17427 2.87539,9.07281 2.71875,13.21875 -0.13426,3.55351 -1.11468,6.39856 -2.4375,7.90625 -2.86785,-4.09846 -6.28471,-5.57641 -9.5,-4.96875 -3.50057,0.66158 -6.57297,3.34867 -8.96875,6.28125 -3.11744,3.81592 -5.22142,7.43695 -5.90625,11.3125 -0.47279,2.67558 -0.22019,5.43914 0.75,8.375 -0.36906,-0.23787 -0.74019,-0.56136 -1.09375,-0.71875 -1.34423,-0.59841 -2.66222,-0.5956 -3.6875,-0.125 -2.05055,0.9412 -2.95943,3.17876 -3.6875,4.5 -0.39167,0.71078 -0.61865,1.64003 -0.875,2.9375 -0.25635,1.29747 -0.50256,2.92209 -0.71875,4.78125 -0.43238,3.71832 -0.76759,8.39569 -0.96875,13.3125 -0.40232,9.83362 -0.26051,20.52224 1.03125,26.40625 1.36411,6.21358 3.12907,16.58582 3.875,27 0.74593,10.41418 0.41857,20.93231 -2.125,27.25 -11.03914,27.41886 -32.96715,38.61761 -47.84375,37.625 -10.63851,-0.70984 -19.63284,-3.75588 -26,-9.28125 -6.36716,-5.52537 -9.17298,-12.08235 -9.5,-23.0625 -0.32956,-11.0653 7.9497,-21.17443 14.5,-26.25 3.29829,10.57264 5.56967,24.99346 0.34375,38.03125 9.42751,-9.30967 3.45689,-35.47126 3.125,-40.65625 -0.56509,-8.82818 -7.1259,-37.61781 -12.28125,-55.59375 -2.57767,-8.98797 -5.31194,-17.00136 -7.625,-22.78125 -1.15653,-2.88994 -2.21581,-5.22119 -3.09375,-6.875 -0.43897,-0.8269 -0.81076,-1.47079 -1.1875,-1.96875 -0.18837,-0.24898 -0.37511,-0.47107 -0.59375,-0.65625 -0.21864,-0.18518 -0.4799,-0.38396 -0.9375,-0.40625 -2.24669,-0.10945 -4.16609,0.82278 -5.71875,2.21875 -0.74953,0.67389 -1.44958,1.47374 -2.09375,2.3125 0.35747,-8.5416 -1.46026,-14.91861 -6.71875,-19.375 -3.1497,-2.66926 -6.55106,-3.93171 -9.75,-3.4375 -2.63284,0.40675 -4.99998,2.05241 -6.9375,4.71875 -3.60973,-9.94815 -2.64216,-17.78524 -0.5,-25.25 1.07946,-3.76158 2.43109,-7.42594 3.53125,-11.21875 0.37122,-1.27982 10.15422,-15.51055 13.71875,-30.96875 -1.49909,-0.18448 -2.96549,-0.41888 -4.40625,-0.71875 -2.92855,10.99134 -7.38574,19.72541 -7.28125,18.28125 0.60193,-8.31893 -0.32103,-15.33523 -1.96875,-21.25 -1.54521,-0.7218 -2.95495,-1.5625 -4.25,-2.46875 2.29013,5.9242 3.98043,13.38951 4.21875,23.75 0.19658,8.54627 -3.13189,15.88802 -5.46875,24.03125 -2.33686,8.14323 -3.56579,17.13037 1.15625,28.5 l 0.78125,1.90625 1,-1.8125 c 1.89506,-3.42553 4.23393,-5.14737 6.71875,-5.53125 2.48482,-0.38388 5.2756,0.58523 8.125,3 5.40733,4.58253 7.0202,10.99855 5.9375,21.125 l 1.8125,0.625 c 1.19197,-1.85939 2.42061,-3.55162 3.71875,-4.71875 1.25282,-1.12639 2.51702,-1.71756 4.09375,-1.6875 0.0557,0.0571 0.12606,0.0962 0.21875,0.21875 0.26482,0.35003 0.62127,0.94645 1.03125,1.71875 0.81997,1.5446 1.82889,3.8392 2.96875,6.6875 2.27972,5.6966 5.03335,13.63477 7.59375,22.5625 5.08315,17.72419 9.15179,39.36348 8.09375,55 -6.83887,5.41898 -15.26068,15.63099 -14.90625,27.53125 0.34019,11.42215 4.45607,20.07303 11.25,25.96875 6.79393,5.89572 16.18249,9.05112 27.125,9.78125 15.99302,1.06711 38.53295,-10.81267 49.84375,-38.90625 2.80146,-6.95822 3.00514,-17.58219 2.25,-28.125 -0.75514,-10.54281 -2.51961,-20.93381 -3.90625,-27.25 -1.18659,-5.40499 -1.36766,-16.15619 -0.96875,-25.90625 0.19945,-4.87503 0.54453,-9.53935 0.96875,-13.1875 0.21211,-1.82407 0.44704,-3.37671 0.6875,-4.59375 0.24046,-1.21704 0.51293,-2.11492 0.65625,-2.375 0.78463,-1.42388 1.72899,-3.17326 2.78125,-3.65625 0.52613,-0.24149 1.09198,-0.29313 2.03125,0.125 0.93927,0.41813 2.1876,1.38216 3.75,3.15625 l 1.65625,-1.125 c -2.24626,-4.22936 -2.88115,-7.76133 -2.28125,-11.15625 0.5999,-3.39492 2.4669,-6.7318 5.46875,-10.40625 2.22934,-2.72885 5.09797,-5.04948 7.8125,-5.5625 2.71453,-0.51302 5.44184,0.49108 8.1875,5.0625 l 0.53125,0.90625 0.875,-0.59375 c 2.61343,-1.83159 3.79952,-5.73964 3.96875,-10.21875 0.16923,-4.47911 -0.75696,-9.61149 -2.90625,-14.125 -4.26509,-8.95668 -12.4138,-16.34751 -13,-25.875 -0.59638,-9.69312 1.71075,-18.00023 4.875,-25.65625 z"
       id="path3784"
       inkscape:connector-curvature="0"
       sodipodi:nodetypes="ssssssssscscscscsssssssssscsccccccssssssscccccsccccccccssscssscssssssssssssccsssssssscsscssccsccsscccssccsccssscssssssssssssccssscccsssc" />
    <path
       style="font-size:medium;font-style:normal;font-variant:normal;font-weight:normal;font-stretch:normal;text-indent:0;text-align:start;text-decoration:none;line-height:normal;letter-spacing:normal;word-spacing:normal;text-transform:none;direction:ltr;block-progression:tb;writing-mode:lr-tb;text-anchor:start;baseline-shift:baseline;color:#000000;fill:#000000;fill-opacity:1;stroke:none;stroke-width:2;marker:none;visibility:visible;display:inline;overflow:visible;enable-background:accumulate;font-family:Sans;-inkscape-font-specification:Sans"
       d="m 273.375,443.8125 -0.0312,0.0312 -0.0312,0.0937 c -9.11039,31.20756 -9.28511,63.19793 -3.875,89.5625 5.41011,26.36457 16.36096,47.15113 30,55.875 l 1.40625,-1.34375 c -8.45332,-15.3261 -14.70587,-39.06776 -15.9375,-62.625 -1.21342,-23.20902 2.4665,-46.2223 13.3125,-60.90625 l -1.75,-0.59375 c 0.0138,-0.12871 0.0184,-0.24748 0.0312,-0.375 -11.20046,15.30751 -14.8165,38.61253 -13.59375,62 1.1497,21.99008 6.60964,43.9612 14.25,59.59375 -11.35889,-9.38822 -20.91014,-28.2933 -25.78125,-52.03125 -5.20779,-25.37867 -5.12595,-56.10687 3.21875,-86.21875 l -0.6875,-1.65625 c -0.19753,-0.47561 -0.35419,-0.93886 -0.53125,-1.40625 z"
       id="path3809"
       inkscape:connector-curvature="0"
       sodipodi:nodetypes="cccsccscccscscccc" />
    <path
       style="font-size:medium;font-style:normal;font-variant:normal;font-weight:normal;font-stretch:normal;text-indent:0;text-align:start;text-decoration:none;line-height:normal;letter-spacing:normal;word-spacing:normal;text-transform:none;direction:ltr;block-progression:tb;writing-mode:lr-tb;text-anchor:start;baseline-shift:baseline;color:#000000;fill:#000000;fill-opacity:1;stroke:none;stroke-width:1px;marker:none;visibility:visible;display:inline;overflow:visible;enable-background:accumulate;font-family:Sans;-inkscape-font-specification:Sans"
       d="m 335.66652,522.60784 c 23.73808,-4.71752 37.11719,-4.6804 58.12109,-4.15688 -17.85426,-3.22921 -44.80406,-1.46314 -58.12109,4.15688 z"
       id="path3837"
       inkscape:connector-curvature="0"
       sodipodi:nodetypes="ccc" />
    <path
       sodipodi:nodetypes="ccc"
       inkscape:connector-curvature="0"
       id="path3839"
       d="m 392.57905,551.14552 c -20.77356,3.57814 -32.3523,2.97046 -50.50745,1.56358 15.29893,3.90615 38.71066,3.33826 50.50745,-1.56358 z"
       style="font-size:medium;font-style:normal;font-variant:normal;font-weight:normal;font-stretch:normal;text-indent:0;text-align:start;text-decoration:none;line-height:normal;letter-spacing:normal;word-spacing:normal;text-transform:none;direction:ltr;block-progression:tb;writing-mode:lr-tb;text-anchor:start;baseline-shift:baseline;color:#000000;fill:#000000;fill-opacity:1;stroke:none;stroke-width:1px;marker:none;visibility:visible;display:inline;overflow:visible;enable-background:accumulate;font-family:Sans;-inkscape-font-specification:Sans" />
    <path
       style="font-size:medium;font-style:normal;font-variant:normal;font-weight:normal;font-stretch:normal;text-indent:0;text-align:start;text-decoration:none;line-height:normal;letter-spacing:normal;word-spacing:normal;text-transform:none;direction:ltr;block-progression:tb;writing-mode:lr-tb;text-anchor:start;baseline-shift:baseline;color:#000000;fill:#000000;fill-opacity:1;stroke:none;stroke-width:1px;marker:none;visibility:visible;display:inline;overflow:visible;enable-background:accumulate;font-family:Sans;-inkscape-font-specification:Sans"
       d="m 379.73968,582.96825 c -18.38658,-0.64949 -26.07939,-4.55625 -35.70955,-10.13303 6.13548,8.57503 24.8452,12.72914 35.70955,10.13303 z"
       id="path3841"
       inkscape:connector-curvature="0"
       sodipodi:nodetypes="ccc" />
    <path
       sodipodi:nodetypes="ccc"
       inkscape:connector-curvature="0"
       id="path3843"
       d="m 358.82358,600.66649 c -16.04632,-2.98975 -18.6198,-9.67558 -22.10677,-16.71502 -0.30024,10.18396 11.24242,19.31113 22.10677,16.71502 z"
       style="font-size:medium;font-style:normal;font-variant:normal;font-weight:normal;font-stretch:normal;text-indent:0;text-align:start;text-decoration:none;line-height:normal;letter-spacing:normal;word-spacing:normal;text-transform:none;direction:ltr;block-progression:tb;writing-mode:lr-tb;text-anchor:start;baseline-shift:baseline;color:#000000;fill:#000000;fill-opacity:1;stroke:none;stroke-width:1px;marker:none;visibility:visible;display:inline;overflow:visible;enable-background:accumulate;font-family:Sans;-inkscape-font-specification:Sans" />
    <path
       style="fill:#000000;fill-opacity:1;stroke:none"
       d="m 296.83095,315.60408 c -15.81114,-0.008 -27.8037,2.64504 -31.27561,2.59915 -3.65938,-0.0483 -9.79054,-0.0158 -13.39566,-0.25705 -9.1e-4,4.39777 0.28582,9.09482 0.88543,13.42423 2.33754,0.98723 4.91131,3.36521 6.05519,6.45504 1.61447,4.36104 3.31708,21.43224 13.22429,29.84749 12.04546,10.23151 40.4084,10.69493 53.29704,0.17138 15.76095,-12.86882 14.60386,-29.28789 16.48038,-32.07534 1.74063,-2.58558 7.12058,-2.2427 8.85428,-0.62837 2.07967,1.93649 1.15845,22.23307 20.45053,36.67385 13.0196,9.74561 39.1863,5.82838 46.89911,0.37131 11.36026,-8.03774 16.08828,-27.78333 16.33757,-31.90396 0.19814,-3.27513 4.21852,-5.15339 6.14087,-5.82669 0.0554,-1.88111 0.41499,-9.14495 0.42843,-13.25286 -2.39291,-0.0973 -6.38176,-0.20981 -9.48264,-0.25705 -4.26129,-0.0649 -18.43855,-3.0562 -36.75954,-3.0276 -20.83395,0.0325 -43.26394,5.70028 -48.29866,5.65532 -5.30635,-0.0475 -29.0748,-7.9578 -49.84101,-7.96885 z m -3.19897,4.76988 c 1.4371,-0.0164 2.94152,0.009 4.51282,0.0571 25.25419,0.76495 36.11983,7.22413 35.84555,21.5359 -0.41795,21.80802 -21.14592,30.74836 -37.04515,29.67611 -24.89019,-1.67861 -30.5422,-16.44556 -31.01855,-28.87637 -0.56226,-14.67292 6.14873,-22.14597 27.70533,-22.39276 z m 104.50904,2.14217 c 23.30644,-0.24137 30.51418,7.20217 29.93317,22.36419 -0.47634,12.43082 -6.12835,27.19776 -31.01853,28.87637 -15.89923,1.07225 -36.62721,-7.8681 -37.04516,-29.67611 -0.27427,-14.31177 10.59137,-20.74239 35.84555,-21.50733 0.78565,-0.0238 1.53315,-0.0494 2.28497,-0.0571 z"
       id="path3801"
       inkscape:connector-curvature="0" />
    <path
       style="font-size:medium;font-style:normal;font-variant:normal;font-weight:normal;font-stretch:normal;text-indent:0;text-align:start;text-decoration:none;line-height:normal;letter-spacing:normal;word-spacing:normal;text-transform:none;direction:ltr;block-progression:tb;writing-mode:lr-tb;text-anchor:start;baseline-shift:baseline;color:#000000;fill:#000000;fill-opacity:1;stroke:none;stroke-width:2;marker:none;visibility:visible;display:inline;overflow:visible;enable-background:accumulate;font-family:Sans;-inkscape-font-specification:Sans"
       d="m 266.78125,199.5 c -7.53999,0 -12.92475,2.61277 -16.875,6.03125 -3.84559,3.32791 -6.3331,7.36281 -8.34375,10.53125 -21.90379,8.36855 -58.89748,7.68726 -86.9375,21 -16.52226,7.84437 -33.96956,20.30987 -47.625,32.90625 -6.82772,6.29819 -12.71237,12.6191 -17.0625,18.4375 -4.35013,5.8184 -7.18476,11.08866 -7.84375,15.5 l -0.0937,0.53125 0.40625,0.375 c 19.44896,17.49527 27.05107,37.67465 35.34375,57.59375 8.29268,19.9191 17.29385,39.55923 39.625,55.375 43.73333,30.9736 85.66799,34.87553 114.3125,20.65625 -0.46665,-1.98297 -0.73159,-3.90517 -0.875,-5.75 -16.27995,7.51692 -38.80689,10.98285 -64.23325,4.56808 -2.50246,-10.06351 1.41896,-23.09271 1.81903,-35.87125 -6.0749,10.61238 -10.40609,26.15392 -11.82251,32.87396 -11.51643,-3.99809 -23.51232,-10.06347 -35.70077,-18.69579 -21.90223,-15.51199 -33.00674,-34.06206 -41.28125,-53.9375 -2.43017,-5.83729 -4.66417,-11.65971 -7.11057,-17.42465 0.30553,-14.61635 13.16344,-28.64046 20.7112,-36.21978 -10.20143,4.03534 -21.90148,15.97638 -26.04468,24.70823 -4.97607,-9.67598 -11.369504,-19.10121 -21.2122,-28.0638 5.09308,-11.77116 13.70406,-23.81701 23.59375,-32.90625 13.53781,-12.44208 30.25936,-24.55575 46.53125,-32.28125 27.50275,-13.05765 66.01709,-14.68971 86.53125,-21.625 4.86458,-1.64459 12.51618,0.91759 20.10035,-0.16157 -8.17418,-0.31537 -13.05832,-3.20078 -18.5731,-1.93116 5.46603,-8.23546 14.06158,-12.20447 22.91025,-11.87602 11.40049,0.42317 18.45405,5.67869 23.96875,12.21875 5.62107,6.66621 9.91822,14.41872 11.65625,23.40625 0.62506,-0.28396 1.2529,-0.55339 1.875,-0.8125 -1.68237,-9.3958 -5.46224,-18.33723 -11.125,-25.3125 -6.5566,-8.07634 -15.62912,-13.54362 -26.5938,-13.84375 z"
       id="path2996"
       inkscape:connector-curvature="0"
       sodipodi:nodetypes="sscssscccsscccccssccccsssccssccscs" />
    <path
       style="font-size:medium;font-style:normal;font-variant:normal;font-weight:normal;font-stretch:normal;text-indent:0;text-align:start;text-decoration:none;line-height:normal;letter-spacing:normal;word-spacing:normal;text-transform:none;direction:ltr;block-progression:tb;writing-mode:lr-tb;text-anchor:start;baseline-shift:baseline;color:#000000;fill:#000000;fill-opacity:1;stroke:none;stroke-width:2;marker:none;visibility:visible;display:inline;overflow:visible;enable-background:accumulate;font-family:Sans;-inkscape-font-specification:Sans"
       d="m 435.15625,202.90625 c -10.09297,0.11107 -18.82702,4.76105 -25.53125,11.84375 -7.02033,7.41654 -11.84177,17.52298 -13.90625,28.1875 0.57037,0.41536 1.1259,0.84634 1.6875,1.28125 0.006,-0.0123 0.0249,-0.019 0.0312,-0.0312 l 0.0937,-0.15625 0,-0.15625 c 1.93354,-10.53324 7.31251,-19.15739 14.28125,-26.25 5.99562,-6.10219 13.4128,-10.78792 24.8125,-10.34375 8.76181,0.34139 16.96311,4.8655 21.80791,13.33075 -5.18081,-2.62959 -13.51667,-4.00565 -18.52639,-1.68613 6.29726,0.063 12.9683,0.64711 20.03098,4.13663 18.40484,9.09345 58.22497,13.01564 84.65625,28.125 15.6379,8.93939 31.3841,22.31538 43.9375,35.75 9.1707,9.81432 16.84715,22.46967 21.03125,34.59375 -20.7684,16.20469 -28.22347,35.24487 -37.90625,54.28125 -3.34321,6.57276 -7.00451,12.96652 -11.29873,19.08747 -8.53408,-12.39709 -17.71533,-31.63177 -36.85479,-46.32799 17.54628,17.26992 25.13874,38.87328 31.46302,53.4326 -7.386,8.98657 -16.53337,17.2523 -28.5595,24.46417 -36.71276,22.01604 -71.06314,23.11204 -95.57741,15.5625 -0.19441,0.29975 -0.40174,0.58043 -0.625,0.84375 0.24165,0.3777 0.48969,0.74458 0.71875,1.15625 l 0.0625,0.125 0.0312,0.125 c 0.31702,1.45322 0.61812,2.8991 0.90625,4.34375 26.26785,7.14835 61.21883,2.24739 97.79616,-19.6875 23.46825,-14.07351 33.93675,-32.98723 43.71875,-52.21875 9.7821,-19.23152 18.9031,-38.78288 39.625,-54.75 l 0.4375,-0.34375 -0.0625,-0.53125 c -0.3219,-4.44866 -2.7295,-9.93042 -6.625,-16.0625 -3.8955,-6.13207 -9.2955,-12.85754 -15.625,-19.65625 -12.659,-13.59741 -29.1215,-27.36057 -45,-36.4375 -26.9476,-15.40453 -63.88904,-17.5228 -85.09375,-27.53125 -1.76412,-3.31203 -3.91835,-7.5458 -7.5,-11.15625 -3.67912,-3.70872 -8.8568,-6.70842 -16.375,-7.28125 l -0.0312,0 c -0.68474,-0.0334 -1.35839,-0.0699 -2.03125,-0.0625 z"
       id="path3780"
       inkscape:connector-curvature="0"
       sodipodi:nodetypes="cscccccssccssscscccsccccccsscccssscsccsc" />
    <path
       style="fill:#000000;fill-opacity:1;stroke:none"
       d="m 471.90625,252.625 c -20.22246,0.32477 -38.67728,7.12123 -50.28125,16.46875 -0.61135,0.66843 -1.22058,1.33036 -1.78125,2 3.02703,7.08275 3.38857,15.45889 3.4375,22.96875 0.0273,4.18234 -0.055,8.09518 0.15625,11.34375 0.21123,3.24857 0.7463,5.80375 1.71875,7.21875 1.32641,1.93003 3.57984,3.8554 5.6875,6.21875 -1.1119,-11.52297 -1.37138,-29.77702 8.57727,-40.02079 12.73427,-13.11203 31.59278,-20.7752 80.45398,-13.38546 -15.45698,-9.39236 -32.24017,-13.0651 -47.96875,-12.8125 z"
       id="path3782"
       inkscape:connector-curvature="0"
       sodipodi:nodetypes="sccssscscs" />
    <path
       style="font-size:medium;font-style:normal;font-variant:normal;font-weight:normal;font-stretch:normal;text-indent:0;text-align:start;text-decoration:none;line-height:normal;letter-spacing:normal;word-spacing:normal;text-transform:none;direction:ltr;block-progression:tb;writing-mode:lr-tb;text-anchor:start;baseline-shift:baseline;color:#000000;fill:#000000;fill-opacity:1;stroke:none;stroke-width:1px;marker:none;visibility:visible;display:inline;overflow:visible;enable-background:accumulate;font-family:Sans;-inkscape-font-specification:Sans"
       d="M 294.5,268.9375 C 324.18556,241.23576 358.84447,239.84149 394.9375,258.625 363.52,234.76308 316.92856,238.57675 294.5,268.9375 z"
       id="path3821"
       inkscape:connector-curvature="0"
       sodipodi:nodetypes="ccc" />
    <path
       sodipodi:nodetypes="ccc"
       inkscape:connector-curvature="0"
       id="path3827"
       d="m 314.44925,322.86015 c 19.98124,-14.50966 42.29453,-14.30142 64.86713,-2.87195 -19.40205,-14.11114 -49.4611,-13.31645 -64.86713,2.87195 z"
       style="font-size:medium;font-style:normal;font-variant:normal;font-weight:normal;font-stretch:normal;text-indent:0;text-align:start;text-decoration:none;line-height:normal;letter-spacing:normal;word-spacing:normal;text-transform:none;direction:ltr;block-progression:tb;writing-mode:lr-tb;text-anchor:start;baseline-shift:baseline;color:#000000;fill:#000000;fill-opacity:1;stroke:none;stroke-width:1px;marker:none;visibility:visible;display:inline;overflow:visible;enable-background:accumulate;font-family:Sans;-inkscape-font-specification:Sans" />
    <path
       style="font-size:medium;font-style:normal;font-variant:normal;font-weight:normal;font-stretch:normal;text-indent:0;text-align:start;text-decoration:none;line-height:normal;letter-spacing:normal;word-spacing:normal;text-transform:none;direction:ltr;block-progression:tb;writing-mode:lr-tb;text-anchor:start;baseline-shift:baseline;color:#000000;fill:#000000;fill-opacity:1;stroke:none;stroke-width:1px;marker:none;visibility:visible;display:inline;overflow:visible;enable-background:accumulate;font-family:Sans;-inkscape-font-specification:Sans"
       d="m 350.21875,341.34375 c -3.26684,0.0674 -6.52554,0.37885 -9.6875,0.90625 -0.12885,0.63224 -0.24367,1.21128 -0.40625,1.90625 4.28409,-0.74983 8.6021,-1.08855 12.96875,-1 -0.15254,-0.62991 -0.27966,-1.24001 -0.40625,-1.8125 -0.8333,-0.0125 -1.63836,-0.0171 -2.46875,0 z"
       id="path3829"
       inkscape:connector-curvature="0"
       sodipodi:nodetypes="sccccs" />
    <path
       sodipodi:nodetypes="ccc"
       inkscape:connector-curvature="0"
       id="path3831"
       d="m 314.02538,430.01589 c 24.16268,-17.39313 50.36618,-15.81382 76.34151,0.14119 -22.12328,-19.20032 -57.47402,-19.9519 -76.34151,-0.14119 z"
       style="font-size:medium;font-style:normal;font-variant:normal;font-weight:normal;font-stretch:normal;text-indent:0;text-align:start;text-decoration:none;line-height:normal;letter-spacing:normal;word-spacing:normal;text-transform:none;direction:ltr;block-progression:tb;writing-mode:lr-tb;text-anchor:start;baseline-shift:baseline;color:#000000;fill:#000000;fill-opacity:1;stroke:none;stroke-width:1px;marker:none;visibility:visible;display:inline;overflow:visible;enable-background:accumulate;font-family:Sans;-inkscape-font-specification:Sans" />
    <path
       style="font-size:medium;font-style:normal;font-variant:normal;font-weight:normal;font-stretch:normal;text-indent:0;text-align:start;text-decoration:none;line-height:normal;letter-spacing:normal;word-spacing:normal;text-transform:none;direction:ltr;block-progression:tb;writing-mode:lr-tb;text-anchor:start;baseline-shift:baseline;color:#000000;fill:#000000;fill-opacity:1;stroke:none;stroke-width:1px;marker:none;visibility:visible;display:inline;overflow:visible;enable-background:accumulate;font-family:Sans;-inkscape-font-specification:Sans"
       d="m 322.78099,463.60237 c 20.35401,-16.61796 43.13153,-16.04171 66.20653,-2.37885 -19.84643,-16.74198 -50.5277,-16.26474 -66.20653,2.37885 z"
       id="path3833"
       inkscape:connector-curvature="0"
       sodipodi:nodetypes="ccc" />
    <path
       sodipodi:nodetypes="ccc"
       inkscape:connector-curvature="0"
       id="path3835"
       d="m 328.50054,493.72221 c 18.31984,-8.69694 38.37613,-8.76249 58.25945,-3.28592 -17.65907,-8.43828 -44.66451,-7.56619 -58.25945,3.28592 z"
       style="font-size:medium;font-style:normal;font-variant:normal;font-weight:normal;font-stretch:normal;text-indent:0;text-align:start;text-decoration:none;line-height:normal;letter-spacing:normal;word-spacing:normal;text-transform:none;direction:ltr;block-progression:tb;writing-mode:lr-tb;text-anchor:start;baseline-shift:baseline;color:#000000;fill:#000000;fill-opacity:1;stroke:none;stroke-width:1px;marker:none;visibility:visible;display:inline;overflow:visible;enable-background:accumulate;font-family:Sans;-inkscape-font-specification:Sans" />
    <path
       style="fill:#000000;fill-opacity:1;stroke:none"
       d="m 218.1875,246 c -12.68329,0.22017 -25.89217,3.06428 -38.5625,9.5 43.29486,1.7552 64.92368,12.30217 76.625,26.34375 10.83522,13.00227 10.13389,26.4902 6.71875,40.03125 0.98107,-1.50876 2.0423,-3.03816 3.09375,-4.59375 3.97289,-5.87774 7.96255,-12.17454 8.25,-19.46875 0.16116,-4.08954 -0.55893,-11.20187 -0.375,-18.6875 0.11414,-4.64542 0.56042,-9.45626 1.84375,-13.875 C 262.89915,254.02679 241.46037,245.59601 218.1875,246 z"
       id="path3768"
       inkscape:connector-curvature="0"
       sodipodi:nodetypes="scscssscs" />
    <path
       style="font-size:medium;font-style:normal;font-variant:normal;font-weight:normal;font-stretch:normal;text-indent:0;text-align:start;text-decoration:none;line-height:normal;letter-spacing:normal;word-spacing:normal;text-transform:none;direction:ltr;block-progression:tb;writing-mode:lr-tb;text-anchor:start;baseline-shift:baseline;color:#000000;fill:#000000;fill-opacity:1;stroke:none;stroke-width:2;marker:none;visibility:visible;display:inline;overflow:visible;enable-background:accumulate;font-family:Sans;-inkscape-font-specification:Sans"
       d="m 430.61755,442.875 c -0.3668,0.42959 -0.76977,0.81034 -1.21875,1.125 l -0.3125,0.21875 c 0.14172,0.23014 0.29919,0.44211 0.4375,0.6875 13.05343,60.06466 0.714,112.74616 -22.9375,135.625 14.19569,-36.51941 19.8441,-83.99879 2.60808,-114.92891 l -0.38933,0.14766 -1.34375,0.90625 c 17.26624,31.10841 10.96469,80.54849 -4.1875,117.09375 l 1.5625,1.15625 c 26.67888,-22.02696 40.38125,-77.4229 26.59375,-140.625 l -0.0312,-0.125 -0.0625,-0.125 c -0.22906,-0.41167 -0.4771,-0.77855 -0.71875,-1.15625 z"
       id="path3811"
       inkscape:connector-curvature="0"
       sodipodi:nodetypes="ccccccccccccccc" />
    <path
       style="font-size:medium;font-style:normal;font-variant:normal;font-weight:normal;font-stretch:normal;text-indent:0;text-align:start;text-decoration:none;line-height:normal;letter-spacing:normal;word-spacing:normal;text-transform:none;direction:ltr;block-progression:tb;writing-mode:lr-tb;text-anchor:start;baseline-shift:baseline;color:#000000;fill:#000000;fill-opacity:1;stroke:none;stroke-width:2;marker:none;visibility:visible;display:inline;overflow:visible;enable-background:accumulate;font-family:Sans;-inkscape-font-specification:Sans"
       d="m 310.96875,501.94618 c -3.14162,1.18683 -5.53853,3.55342 -7.03125,5.49132 -1.27823,-0.31776 -3.39057,-0.7951 -5.84375,-0.8125 -2.73426,-0.0194 -5.84564,0.6047 -7.9375,3.03125 -2.01347,2.33562 -2.57861,5.67034 -2.5625,8.84375 0.0161,3.17341 0.64132,6.18828 1.375,8.09375 1.17646,3.05541 3.63088,5.48746 5.6875,7.71875 2.05662,2.23129 3.59375,4.2311 3.59375,5.96875 0,2.82029 -0.79851,6.06679 -0.875,8.875 -0.0382,1.4041 0.10397,2.74249 0.78125,3.875 0.67728,1.13251 1.92418,1.90439 3.59375,2.125 2.86318,0.37834 5.5761,-0.59369 7.90625,-2.28125 2.33015,-1.68756 4.34337,-4.08387 6.0625,-6.71875 3.16742,-4.85464 5.14493,-10.28453 5.875,-14 1.72531,0.55147 3.16048,0.90661 4.375,0.96875 -0.0395,-0.69688 -0.10413,-1.38582 -0.15625,-2.09375 -1.03133,-0.031 -1.75701,-0.0963 -3.9043,-0.8431 0.11368,-2.30216 -0.37377,-5.13663 -2.03385,-5.93312 0.34288,2.23078 -0.0607,5.58041 -0.48003,7.91575 -0.56564,3.15017 -2.10673,7.90079 -5.36307,12.89172 -1.62817,2.49546 -3.51989,4.73943 -5.5625,6.21875 -2.04261,1.47932 -4.16974,2.20591 -6.4375,1.90625 -1.24952,-0.16511 -1.79255,-0.57934 -2.15625,-1.1875 -0.3637,-0.60816 -0.53333,-1.55757 -0.5,-2.78125 1.70769,-5.90646 6.83162,0.93539 10.79158,-3.08602 2.37191,-3.36366 0.79503,-11.07436 1.15447,-15.86974 0.28912,-3.85718 -2.02822,-10.08827 -6.03077,-13.8405 -4.21249,-3.94904 -9.35688,-6.57141 -6.27705,-6.55423 2.42166,0.0135 4.84765,0.20805 5.86437,0.875 2.3149,1.51856 4.50303,3.55493 6.09936,5.8919 -0.94464,-2.92314 -2.43755,-5.89912 -5.40253,-8.27274 1.072,-1.63953 3.24553,-3.21297 6.37435,-4.39497 1.56441,-0.591 3.03641,-0.57444 4.89497,-0.7487 1.49674,-0.14034 3.07598,-0.0272 4.6875,0.21875 -0.16502,-0.73259 -0.36036,-1.45958 -0.53125,-2.1875 -3.13727,-0.70501 -7.57466,-0.19435 -10.03125,0.69618 z"
       id="path26"
       inkscape:connector-curvature="0"
       sodipodi:nodetypes="ccsssssscsssscccccsssssccssssccssccc" />
    <path
       style="fill:#000000;fill-opacity:1;stroke:none"
       d="m 281.73239,439.04609 c -20.2715,44.05947 -9.5152,101.77117 0.62055,122.04266 -5.99871,-22.34001 -17.95473,-71.46049 3.30963,-121.83582 z"
       id="path3779"
       inkscape:connector-curvature="0"
       sodipodi:nodetypes="cccc" />
    <path
       style="fill:#000000;fill-opacity:1;stroke:none"
       d="m 406.25727,454.35313 c 23.29898,38.47447 17.58242,84.39561 7.23982,109.8384 13.23852,-25.02909 19.22254,-72.43368 -5.79185,-114.38914 z"
       id="path3781"
       inkscape:connector-curvature="0"
       sodipodi:nodetypes="cccc" />
    <text
       xml:space="preserve"
       style="font-size:74.02050781px;font-style:normal;font-variant:normal;font-weight:normal;font-stretch:normal;text-indent:0;text-align:center;text-decoration:none;line-height:125%;letter-spacing:0px;word-spacing:0px;text-transform:none;direction:ltr;block-progression:tb;writing-mode:lr-tb;text-anchor:middle;color:#000000;fill:#000000;fill-opacity:1;fill-rule:nonzero;stroke:none;stroke-width:1px;marker:none;visibility:visible;display:inline;overflow:visible;enable-background:accumulate;font-family:Dead Island;-inkscape-font-specification:Dead Island"
       x="351.46854"
       y="680.14551"
       id="text3789"
       sodipodi:linespacing="125%"><tspan
         sodipodi:role="line"
         x="351.46854"
         y="680.14551"
         id="tspan3793">nerdish by nature</tspan></text>
  </g>
</svg>
